<svg width="17602" height="1512" viewBox="0 0 17602 1512" fill="none" xmlns="http://www.w3.org/2000/svg">
<g clip-path="url(#clip0_275_99)">
<path fill-rule="evenodd" clip-rule="evenodd" d="M16915.5 185.974C16636.3 185.974 16545.1 437.629 16545.1 670.501C16545.1 903.373 16630.6 1211.44 16919.4 1211.44C17208.1 1211.44 17286 888.381 17286 668.634C17286 448.888 17187.2 185.974 16915.6 185.974H16915.5ZM16900.4 1397.35C16465.3 1397.35 16229.8 1068.69 16229.8 659.242C16229.8 249.792 16524.2 0.00236193 16919.4 0.00236193C17314.5 0.00236193 17601.4 227.274 17601.4 640.46C17601.4 1053.64 17335.4 1397.35 16900.4 1397.35H16900.4Z" fill="white"/>
<path fill-rule="evenodd" clip-rule="evenodd" d="M16033.4 147.504C16031.2 85.1323 15979.4 35.7043 15916.3 35.7043H15782.7C15738.3 35.7043 15697.8 60.4483 15677.9 99.6417L15376 704.336L15065.2 97.1737C15044.9 59.3043 15005.1 35.6443 14961.7 35.6443H14827C14763.5 35.6443 14711.6 85.5536 14709.7 148.287L14678.4 1242.45C14676.5 1307.71 14729.6 1361.65 14795.7 1361.65H14799.8C14863.5 1361.65 14915.6 1311.38 14917 1248.41L14931.4 638.534C14933.3 572.79 14935.3 454.488 14933.3 420.652H14937.2C14959.9 480.738 15011.3 578.388 15043.6 642.266L15234.3 986.576C15280.8 1070.56 15402.5 1071.28 15450.1 987.9L15647.7 610.418C15679.9 548.407 15731.2 441.363 15754.1 388.804H15757.9C15757.9 450.815 15761.7 561.592 15763.6 640.46L15781.2 1249.07C15783 1311.8 15835 1361.71 15898.4 1361.71H15955.5C16021.9 1361.71 16075.1 1307.29 16072.7 1241.66L16033.6 147.504H16033.4Z" fill="white"/>
<path fill-rule="evenodd" clip-rule="evenodd" d="M14322.2 33.9555H14249.6C14185.4 33.9555 14133.3 85.3701 14133.3 148.886V832.63C14133.3 1031.91 14038.4 1140.82 13857.5 1150.03C13676.5 1140.82 13581.6 1031.91 13581.6 832.63V148.886C13581.6 85.4301 13529.6 33.9555 13465.4 33.9555H13392.8C13328.6 33.9555 13276.6 85.3701 13276.6 148.886V832.63C13276.6 904.394 13284.7 976.639 13305.4 1045.57C13323.1 1104.51 13350.3 1160.8 13388.5 1209.51C13424.2 1255.09 13469 1293.07 13519.9 1321.25C13573.5 1350.93 13632.4 1373.99 13693.1 1382.6C13782.6 1395.36 13830.4 1393.38 13881.7 1393.07C13980.4 1392.47 14046.9 1385.37 14140.4 1349.37C14146 1347.2 14151.6 1344.97 14157.1 1342.56C14210.9 1319.44 14260 1286.09 14300.1 1243.83C14341.9 1199.82 14373.4 1147.14 14395 1090.85C14420.3 1025.34 14432.7 955.507 14436.7 885.73C14437.7 868.03 14438.2 850.33 14438.2 832.57V148.886C14438.2 85.4301 14386.1 33.9555 14322 33.9555H14322.2Z" fill="white"/>
<path fill-rule="evenodd" clip-rule="evenodd" d="M12192.2 1434.98C12070.4 1391.99 11982.4 1305.48 11921.2 1183.5C11844.5 1030.7 11787.5 816.677 11788.9 644.19C11790.2 481.457 11800.3 393.62 11850.5 309.693C11771.2 363.818 11709.2 447.141 11687.2 544.793C11627.4 810.717 11757.2 1262.31 12010.6 1416.8C12015.3 1419.63 12023.6 1424.02 12017.6 1433.83C11856.9 1402.65 11702.3 1192.05 11626.8 899.458C11611.3 902.89 11605.3 913.004 11599.3 922.818C11543.2 1013.24 11551.8 1107.28 11595.8 1195.72C11690.8 1386.93 11842.1 1487.42 12037.1 1508.49C12089.2 1514.09 12142.2 1514.87 12192.6 1492.53C12207.9 1485.79 12227.1 1477.78 12228.7 1459.42C12231.1 1432.87 12205.2 1439.55 12192.3 1434.98H12192.2Z" fill="white"/>
<path fill-rule="evenodd" clip-rule="evenodd" d="M12662.8 117.16C12725.1 114.812 12724.4 173.151 12712.4 501.265V546.539C12553.8 546.419 12280.6 545.576 12132.3 545.095V544.733C12132.3 266.287 12179.7 141.603 12202 64.7826C12128.9 75.6186 12019 109.153 11958.6 234.439C11883.2 390.789 11866.8 626.672 11895.7 815.593C11922.9 992.595 12016.7 1309.63 12238.1 1382.36C12253.2 1387.36 12266.6 1371.46 12258.5 1357.92C12217.7 1289.58 12140.3 1112.88 12130.8 747.984C12256.3 750.272 12594.4 755.509 12712.5 754.667V1256.05C12712.5 1309.03 12755.9 1351.96 12809.6 1351.96H12922.2C12975.7 1351.96 13019.2 1309.03 13019.2 1256.05V294.583C13030.9 26.1906 12755.9 -41.78 12662.9 117.16H12662.8Z" fill="white"/>
<path d="M10625.7 300.766L10350.8 575.665L10075.2 300.002L9951.76 423.415L10227.4 699.077L9951 975.502L10074.4 1098.91L10350.8 822.489L10626.5 1098.15L10749.9 974.738L10474.2 699.077L10749.1 424.178L10625.7 300.766Z" fill="white"/>
<path d="M364.399 1265.22V328.417H0V162.639H930.544V328.417H566.147V1265.22H364.399Z" fill="white"/>
<path d="M1072.85 1265.22V162.639H1815.72V320.599H1266.77V625.567H1779.75V785.089H1266.77V1105.7H1815.72V1265.22H1072.85Z" fill="white"/>
<path d="M2205.12 661.537H2469.42C2536.13 661.537 2586.18 646.679 2619.56 616.965C2652.92 587.251 2669.61 545.293 2669.61 491.068C2669.61 436.868 2652.92 394.885 2619.56 365.171C2586.18 335.455 2536.13 320.599 2469.42 320.599H2205.12V661.537ZM2003.37 1265.22V162.64H2492.88C2613.82 162.64 2706.09 191.841 2769.7 250.22C2833.28 308.624 2865.1 388.899 2865.1 491.068C2865.1 592.211 2833.28 672.485 2769.7 731.915C2706.09 791.344 2613.82 821.06 2492.88 821.06H2205.12V1265.22H2003.37Z" fill="white"/>
<path d="M3044.93 1265.22V162.639H3246.68V1094.75H3765.91V1265.22H3044.93Z" fill="white"/>
<path d="M4036.47 713.149C4036.47 837.238 4063.06 934.203 4116.24 1004.04C4169.41 1073.91 4248.63 1108.83 4353.95 1108.83C4456.12 1108.83 4534.84 1073.91 4590.11 1004.04C4645.36 934.203 4673 837.238 4673 713.149C4673 588.034 4645.63 491.069 4590.89 422.255C4536.15 353.442 4457.17 319.035 4353.95 319.035C4248.63 319.035 4169.41 353.442 4116.24 422.255C4063.06 491.069 4036.47 588.034 4036.47 713.149ZM3825.34 713.149C3825.34 597.417 3846.46 497.325 3888.68 412.871C3930.91 328.419 3991.63 263.002 4070.88 216.598C4150.1 170.217 4244.48 147.002 4353.95 147.002C4462.38 147.002 4556.22 170.217 4635.46 216.598C4714.69 263.002 4775.95 328.419 4819.23 412.871C4862.48 497.325 4884.13 596.903 4884.13 711.586C4884.13 827.317 4862.48 927.678 4819.23 1012.64C4775.95 1097.63 4714.69 1163.56 4635.46 1210.48C4556.22 1257.4 4462.38 1280.86 4353.95 1280.86C4244.48 1280.86 4150.37 1257.4 4071.66 1210.48C3992.93 1163.56 3932.2 1097.63 3889.46 1012.64C3846.7 927.678 3825.34 827.854 3825.34 713.149Z" fill="white"/>
<path d="M5520.61 1265.22V162.639H6247.85V320.599H5722.36V633.387H6211.88V791.344H5722.36V1265.22H5520.61Z" fill="white"/>
<path d="M6415.17 1265.22V162.639H7158.05V320.599H6609.1V625.567H7122.08V785.089H6609.1V1105.7H7158.05V1265.22H6415.17Z" fill="white"/>
<path d="M7714.8 1280.86C7626.16 1280.86 7544.57 1269.64 7470.04 1247.23C7395.48 1224.83 7331.63 1193.82 7278.46 1154.18L7341.01 996.222C7376.45 1021.24 7413.47 1042.36 7452.05 1059.56C7490.61 1076.76 7531.81 1089.81 7575.6 1098.66C7619.39 1107.53 7665.78 1111.95 7714.8 1111.95C7797.15 1111.95 7856.58 1098.42 7893.09 1071.29C7929.57 1044.19 7947.82 1008.73 7947.82 964.943C7947.82 926.382 7935.31 896.911 7910.29 876.581C7885.27 856.249 7840.42 839.314 7775.79 825.751L7599.06 789.782C7497.92 768.938 7422.34 734.018 7372.29 684.998C7322.25 636.002 7297.22 570.317 7297.22 487.942C7297.22 419.127 7315.45 359.185 7351.96 308.087C7388.45 257.015 7439.54 217.379 7505.23 189.229C7570.91 161.078 7647.54 147.001 7735.13 147.001C7813.32 147.001 7885.78 158.219 7952.52 180.626C8019.23 203.059 8075.02 235.119 8119.86 276.809L8057.3 426.947C8012.46 389.413 7963.46 361.53 7910.29 343.277C7857.11 325.046 7797.68 315.907 7732 315.907C7657.96 315.907 7600.36 330.251 7559.18 358.915C7517.98 387.605 7497.41 426.947 7497.41 476.994C7497.41 515.579 7510.16 546.343 7535.72 569.266C7561.26 592.211 7604.78 609.929 7666.31 622.441L7841.47 656.847C7945.72 677.715 8022.89 711.854 8072.94 759.285C8122.99 806.741 8148.01 870.594 8148.01 950.867C8148.01 1016.55 8130.27 1074.17 8094.83 1123.68C8059.38 1173.22 8009.33 1211.8 7944.7 1239.42C7880.04 1267.03 7803.4 1280.86 7714.8 1280.86Z" fill="white"/>
<path d="M8574.95 1265.22V328.417H8210.55V162.639H9141.09V328.417H8776.7V1265.22H8574.95Z" fill="white"/>
</g>
<defs>
<clipPath id="clip0_275_99">
<rect width="17601.4" height="1511.81" fill="white"/>
</clipPath>
</defs>
</svg>
