<svg width="560" height="433" viewBox="0 0 560 433" fill="none" xmlns="http://www.w3.org/2000/svg">
<g clip-path="url(#clip0_268_152)">
<path d="M263.719 47.2373C306.508 50.1359 308.903 52.4853 311.856 94.4746C314.811 52.4853 317.205 50.1359 359.995 47.2373C317.205 44.3386 314.811 41.9893 311.856 -6.38507e-05C308.903 41.9893 306.508 44.3386 263.719 47.2373Z" fill="#E9C25D"/>
<path d="M491.137 214.465L450.317 276.561L413.479 212.022L422.125 285.829L352.422 260.069L406.486 311.05L336.531 336.121L410.718 340.424L373.245 404.596L432.841 360.205L445.382 433.45L462.502 361.138L519.191 409.185L485.825 342.786L560.135 343.154L491.894 313.737L549.055 266.253L477.871 287.582L491.137 214.465Z" fill="#E9C25D"/>
<path d="M198.865 158.722C198.865 169.538 207.633 178.308 218.451 178.308C229.267 178.308 238.036 169.538 238.036 158.722C238.036 147.906 229.267 139.137 218.451 139.137C207.633 139.137 198.865 147.906 198.865 158.722Z" fill="#E9C25D"/>
<path d="M216.945 297.325C216.945 308.141 225.713 316.911 236.531 316.911C247.347 316.911 256.116 308.141 256.116 297.325C256.116 286.509 247.347 277.74 236.531 277.74C225.713 277.74 216.945 286.509 216.945 297.325Z" fill="#E9C25D"/>
<path d="M0 200.906C0 225.035 19.5613 244.597 43.6907 244.597C67.82 244.597 87.38 225.035 87.38 200.906C87.38 176.777 67.82 157.215 43.6907 157.215C19.5613 157.215 0 176.777 0 200.906Z" fill="#E9C25D"/>
</g>
<defs>
<clipPath id="clip0_268_152">
<rect width="560" height="433" fill="white"/>
</clipPath>
</defs>
</svg>
