<svg width="11769" height="1181" viewBox="0 0 11769 1181" fill="none" xmlns="http://www.w3.org/2000/svg">
<path fill-rule="evenodd" clip-rule="evenodd" d="M11308.1 124.737C11120.8 124.737 11059.7 293.531 11059.7 449.724C11059.7 605.919 11117 812.548 11310.7 812.548C11504.4 812.548 11556.6 595.864 11556.6 448.472C11556.6 301.081 11490.4 124.737 11308.2 124.737H11308.1ZM11297.9 937.245C11006.1 937.245 10848.2 716.805 10848.2 442.173C10848.2 167.541 11045.7 1.51741e-05 11310.7 1.51741e-05C11575.7 1.51741e-05 11768.1 152.439 11768.1 429.575C11768.1 706.709 11589.8 937.245 11298 937.245H11297.9Z" fill="white"/>
<path fill-rule="evenodd" clip-rule="evenodd" d="M10716.5 98.9335C10715 57.0988 10680.2 23.9454 10637.9 23.9454H10548.3C10518.5 23.9454 10491.3 40.5428 10478 66.8308L10275.5 472.419L10067.1 65.1748C10053.4 39.7748 10026.7 23.9055 9997.63 23.9055H9907.25C9864.69 23.9055 9829.85 57.3815 9828.63 99.4588L9807.63 833.344C9806.37 877.117 9841.94 913.299 9886.26 913.299H9889.03C9931.75 913.299 9966.68 879.58 9967.66 837.342L9977.33 428.281C9978.6 384.185 9979.91 304.836 9978.6 282.143H9981.17C9996.45 322.443 10030.9 387.942 10052.5 430.786L10180.4 661.724C10211.6 718.056 10293.3 718.542 10325.2 662.614L10457.7 409.424C10479.4 367.831 10513.8 296.033 10529.1 260.781H10531.7C10531.7 302.373 10534.2 376.675 10535.5 429.573L10547.3 837.787C10548.5 879.863 10583.4 913.339 10625.9 913.339H10664.2C10708.7 913.339 10744.4 876.835 10742.8 832.819L10716.5 98.9335H10716.5Z" fill="white"/>
<path fill-rule="evenodd" clip-rule="evenodd" d="M9568.66 22.7754H9519.97C9476.93 22.7754 9442.01 57.2607 9442.01 99.8633V558.471C9442.01 692.133 9378.37 765.182 9256.99 771.359C9135.6 765.182 9071.97 692.133 9071.97 558.471V99.8633C9071.97 57.3007 9037.09 22.7754 8994 22.7754H8945.32C8902.27 22.7754 8867.35 57.2607 8867.35 99.8633V558.471C8867.35 606.605 8872.78 655.062 8886.66 701.298C8898.55 740.831 8916.81 778.587 8942.41 811.257C8966.35 841.825 8996.45 867.305 9030.55 886.203C9066.54 906.111 9106.03 921.578 9146.75 927.351C9206.75 935.913 9238.81 934.581 9273.24 934.378C9339.45 933.974 9384.05 929.21 9446.78 905.062C9450.54 903.607 9454.26 902.114 9457.97 900.498C9494.04 884.993 9526.96 862.621 9553.87 834.274C9581.89 804.755 9603.01 769.422 9617.55 731.665C9634.5 687.73 9642.79 640.889 9645.48 594.087C9646.18 582.215 9646.51 570.343 9646.51 558.43V99.8633C9646.51 57.3007 9611.58 22.7754 9568.54 22.7754H9568.66Z" fill="white"/>
<path fill-rule="evenodd" clip-rule="evenodd" d="M8140.06 962.484C8058.37 933.652 7999.31 875.624 7958.27 793.812C7906.84 691.325 7868.62 547.77 7869.56 432.078C7870.41 322.928 7877.19 264.011 7910.85 207.721C7857.67 244.023 7816.05 299.91 7801.35 365.409C7761.24 543.772 7848.28 846.67 8018.22 950.289C8021.37 952.186 8026.96 955.134 8022.92 961.717C7915.14 940.8 7811.48 799.546 7760.83 603.294C7750.42 605.596 7746.41 612.38 7742.33 618.962C7704.75 679.614 7710.51 742.689 7740 802.009C7803.72 930.26 7905.21 997.656 8035.99 1011.79C8070.95 1015.54 8106.48 1016.07 8140.3 1001.09C8150.55 996.565 8163.42 991.194 8164.52 978.878C8166.12 961.07 8148.76 965.553 8140.1 962.484H8140.06Z" fill="white"/>
<path fill-rule="evenodd" clip-rule="evenodd" d="M8455.65 78.582C8497.47 77.0073 8497.02 116.137 8488.98 336.214V366.579C8382.58 366.499 8199.32 365.934 8099.87 365.61V365.369C8099.87 178.606 8131.68 94.9766 8146.59 43.45C8097.58 50.7193 8023.86 73.2113 7983.34 157.245C7932.78 262.114 7921.75 420.327 7941.19 547.043C7959.41 665.763 8022.35 878.41 8170.81 927.19C8180.94 930.542 8189.97 919.882 8184.54 910.795C8157.17 864.963 8105.26 746.445 8098.89 501.695C8183.02 503.23 8409.82 506.742 8489.02 506.178V842.471C8489.02 878.006 8518.14 906.798 8554.12 906.798H8629.64C8665.58 906.798 8694.74 878.006 8694.74 842.471V197.585C8702.59 17.566 8518.14 -28.0234 8455.73 78.582H8455.65Z" fill="white"/>
<path d="M6877.57 239.512L6693.18 423.895L6508.29 239L6425.51 321.776L6610.41 506.671L6425 692.077L6507.78 774.854L6693.18 589.448L6878.08 774.342L6960.85 691.565L6775.96 506.671L6960.34 322.288L6877.57 239.512Z" fill="white"/>
<path d="M276.061 925.032V215.328H0V89.7306H704.967V215.328H428.905V925.032H276.061Z" fill="white"/>
<path d="M997.619 936.884C897.295 936.884 818.712 909.243 761.84 853.939C704.968 798.667 676.525 722.838 676.525 626.46C676.525 564.072 688.773 509.568 713.257 462.948C737.729 416.36 771.905 380.012 815.752 353.951C859.588 327.878 910.715 314.851 969.177 314.851C1026.83 314.851 1075.02 327.11 1113.73 351.582C1152.43 376.066 1181.85 410.428 1201.99 454.659C1222.14 498.9 1232.21 550.63 1232.21 609.871V648.97H796.203V570.772H1126.77L1106.62 587.36C1106.62 532.079 1094.96 489.811 1071.67 460.579C1048.36 431.371 1014.59 416.744 970.372 416.744C921.383 416.744 883.676 434.122 857.22 468.879C830.74 503.648 817.528 552.22 817.528 614.607V630.012C817.528 694.79 833.525 743.166 865.508 775.148C897.503 807.143 942.709 823.139 1001.17 823.139C1035.13 823.139 1066.92 818.6 1096.55 809.511C1126.17 800.443 1154.4 785.631 1181.26 765.083L1225.11 864.607C1196.67 887.523 1162.7 905.296 1123.21 917.927C1083.7 930.547 1041.85 936.884 997.619 936.884Z" fill="white"/>
<path d="M1658.74 823.139C1706.13 823.139 1744.04 806.758 1772.47 773.965C1800.92 741.202 1815.14 691.622 1815.14 625.275C1815.14 558.919 1800.92 509.568 1772.47 477.168C1744.04 444.79 1706.13 428.597 1658.74 428.597C1612.12 428.597 1574.61 444.79 1546.18 477.168C1517.74 509.568 1503.53 558.919 1503.53 625.275C1503.53 691.622 1517.74 741.202 1546.18 773.965C1574.61 806.758 1612.12 823.139 1658.74 823.139ZM1357.79 1180.95V475.985C1357.79 451.511 1357 426.634 1355.42 401.338C1353.83 376.066 1351.46 351.187 1348.32 326.693H1491.68L1504.71 452.29H1491.68C1503.53 410.429 1528.59 377.053 1566.91 352.174C1605.21 327.285 1649.64 314.851 1700.21 314.851C1753.11 314.851 1799.33 327.285 1838.83 352.174C1878.31 377.053 1909.12 412.599 1931.24 458.803C1953.34 505.018 1964.42 560.509 1964.42 625.275C1964.42 690.054 1953.34 745.731 1931.24 792.33C1909.12 838.95 1878.31 874.673 1838.83 899.562C1799.33 924.439 1753.11 936.885 1700.21 936.885C1650.44 936.885 1606.6 924.647 1568.69 900.153C1530.78 875.681 1505.49 842.886 1492.86 801.814H1505.9V1180.95H1357.79Z" fill="white"/>
<path d="M2092.37 52.9999H2240.48V925.032H2092.37V52.9999Z" fill="white"/>
<path d="M2671.73 823.139C2718.33 823.139 2755.44 806.758 2783.11 773.965C2810.74 741.202 2824.57 691.622 2824.57 625.275C2824.57 558.919 2810.74 509.569 2783.11 477.169C2755.44 444.79 2718.33 428.597 2671.73 428.597C2625.11 428.597 2588 444.79 2560.35 477.169C2532.7 509.569 2518.89 558.919 2518.89 625.275C2518.89 691.622 2532.7 741.202 2560.35 773.965C2588 806.758 2625.11 823.139 2671.73 823.139ZM2671.73 936.885C2610.12 936.885 2556.8 924.253 2511.78 898.97C2466.75 873.697 2431.81 837.766 2406.92 791.145C2382.04 744.546 2369.6 689.253 2369.6 625.275C2369.6 561.287 2382.04 506.202 2406.92 459.987C2431.81 413.783 2466.75 378.05 2511.78 352.766C2556.8 327.493 2610.12 314.851 2671.73 314.851C2733.34 314.851 2786.85 327.493 2832.27 352.766C2877.69 378.05 2912.84 413.783 2937.73 459.987C2962.61 506.202 2975.04 561.287 2975.04 625.275C2975.04 689.253 2962.61 744.546 2937.73 791.145C2912.84 837.766 2877.69 873.697 2832.27 898.97C2786.85 924.253 2733.34 936.885 2671.73 936.885Z" fill="white"/>
<path d="M3439.48 925.032V89.7304H3990.42V209.396H3592.32V446.369H3963.17V566.034H3592.32V925.032H3439.48Z" fill="white"/>
<path d="M4373.11 936.884C4272.79 936.884 4194.2 909.243 4137.33 853.939C4080.46 798.667 4052.02 722.838 4052.02 626.46C4052.02 564.072 4064.27 509.568 4088.75 462.948C4113.22 416.36 4147.4 380.012 4191.24 353.951C4235.08 327.878 4286.21 314.851 4344.67 314.851C4402.32 314.851 4450.51 327.11 4489.22 351.582C4527.92 376.066 4557.35 410.428 4577.49 454.659C4597.63 498.9 4607.71 550.63 4607.71 609.871V648.97H4171.69V570.772H4502.26L4482.11 587.36C4482.11 532.079 4470.45 489.811 4447.16 460.579C4423.85 431.371 4390.08 416.744 4345.86 416.744C4296.87 416.744 4259.17 434.122 4232.71 468.879C4206.23 503.648 4193.02 552.22 4193.02 614.607V630.012C4193.02 694.79 4209.02 743.166 4241 775.148C4272.99 807.143 4318.2 823.139 4376.66 823.139C4410.62 823.139 4442.42 818.6 4472.04 809.511C4501.66 800.443 4529.89 785.631 4556.75 765.083L4600.6 864.607C4572.16 887.523 4538.19 905.296 4498.7 917.927C4459.19 930.547 4417.34 936.884 4373.11 936.884Z" fill="white"/>
<path d="M4946.55 936.884C4895.19 936.884 4848 930.755 4804.96 918.519C4761.9 906.283 4725.77 889.102 4696.55 866.975L4738.02 767.451C4768.03 787.999 4801.2 803.787 4837.54 814.84C4873.87 825.914 4910.6 831.428 4947.73 831.428C4987.23 831.428 5016.63 824.73 5036.01 811.287C5055.35 797.867 5065.03 779.71 5065.03 756.783C5065.03 738.626 5058.9 724.208 5046.66 713.539C5034.41 702.882 5014.86 694.79 4988.02 689.254L4869.54 666.743C4818.98 655.691 4780.47 636.734 4754.01 609.871C4727.55 583.03 4714.32 547.867 4714.32 504.415C4714.32 467.3 4724.4 434.518 4744.54 406.075C4764.68 377.644 4793.51 355.332 4831.03 339.138C4868.54 322.954 4912.58 314.851 4963.14 314.851C5007.37 314.851 5049.03 320.772 5088.13 332.624C5127.23 344.467 5160.2 362.24 5187.06 385.934L5144.41 481.906C5119.92 462.17 5091.87 446.775 5060.29 435.702C5028.69 424.648 4997.88 419.112 4967.87 419.112C4926.79 419.112 4896.78 426.426 4877.83 441.03C4858.88 455.656 4849.39 474.416 4849.39 497.31C4849.39 514.7 4855.12 529.118 4866.57 540.554C4878.01 552.011 4895.99 560.51 4920.49 566.035L5038.97 588.546C5091.87 598.819 5131.98 616.79 5159.22 642.458C5186.47 668.124 5200.1 703.079 5200.1 747.31C5200.1 786.815 5189.43 820.771 5168.11 849.202C5146.78 877.644 5117.17 899.375 5079.25 914.363C5041.34 929.363 4997.08 936.884 4946.55 936.884Z" fill="white"/>
<path d="M5576.88 936.884C5505.8 936.884 5452.08 918.332 5415.75 881.196C5379.41 844.071 5361.25 788.394 5361.25 714.131V438.07H5246.32V326.692H5361.25V173.86L5509.35 135.944V326.692H5669.29V438.07H5509.35V704.658C5509.35 745.731 5517.24 774.556 5533.05 791.146C5548.84 807.735 5570.56 816.023 5598.2 816.023C5613.2 816.023 5626.05 814.84 5636.7 812.471C5647.36 810.103 5657.84 806.956 5668.11 802.998V920.295C5654.69 925.811 5639.86 929.955 5623.68 932.73C5607.5 935.492 5591.88 936.884 5576.88 936.884Z" fill="white"/>
</svg>
