<svg width="9142" height="5984" viewBox="0 0 9142 5984" fill="none" xmlns="http://www.w3.org/2000/svg">
<path fill-rule="evenodd" clip-rule="evenodd" d="M7006.42 4658.08C6727.16 4658.08 6636.01 4909.74 6636.01 5142.61C6636.01 5375.48 6721.5 5683.55 7010.26 5683.55C7299.01 5683.55 7376.89 5360.49 7376.89 5140.74C7376.89 4921 7278.13 4658.08 7006.48 4658.08H7006.42ZM6991.26 5869.46C6556.18 5869.46 6320.7 5540.8 6320.7 5131.35C6320.7 4721.9 6615.12 4472.11 7010.26 4472.11C7405.39 4472.11 7692.26 4699.38 7692.26 5112.57C7692.26 5525.75 7426.34 5869.46 6991.32 5869.46H6991.26Z" fill="white"/>
<path fill-rule="evenodd" clip-rule="evenodd" d="M6124.32 4619.61C6122.07 4557.24 6070.31 4507.81 6007.16 4507.81H5873.56C5829.23 4507.81 5788.68 4532.56 5768.76 4571.75L5466.86 5176.45L5156.12 4569.28C5135.78 4531.41 5095.96 4507.75 5052.6 4507.75H4917.84C4854.39 4507.75 4802.45 4557.66 4800.63 4620.4L4769.33 5714.55C4767.44 5779.82 4820.48 5833.76 4886.55 5833.76H4890.69C4954.38 5833.76 5006.44 5783.49 5007.91 5720.51L5022.34 5110.64C5024.22 5044.9 5026.17 4926.6 5024.22 4892.76H5028.06C5050.84 4952.85 5102.17 5050.5 5134.44 5114.38L5325.16 5458.69C5371.68 5542.67 5493.41 5543.39 5541.02 5460.01L5738.56 5082.53C5770.84 5020.52 5822.11 4913.47 5844.94 4860.91H5848.78C5848.78 4922.92 5852.62 5033.7 5854.5 5112.57L5872.1 5721.18C5873.93 5783.91 5925.87 5833.82 5989.32 5833.82H6046.44C6112.81 5833.82 6165.97 5779.39 6163.6 5713.77L6124.44 4619.61H6124.32Z" fill="white"/>
<path fill-rule="evenodd" clip-rule="evenodd" d="M4413.04 4506.07H4340.46C4276.27 4506.07 4224.21 4557.48 4224.21 4621V5304.74C4224.21 5504.02 4129.34 5612.93 3948.37 5622.14C3767.39 5612.93 3672.52 5504.02 3672.52 5304.74V4621C3672.52 4557.54 3620.52 4506.07 3556.27 4506.07H3483.69C3419.51 4506.07 3367.45 4557.48 3367.45 4621V5304.74C3367.45 5376.51 3375.54 5448.75 3396.25 5517.69C3413.97 5576.63 3441.19 5632.92 3479.37 5681.62C3515.05 5727.2 3559.93 5765.19 3610.77 5793.36C3664.42 5823.04 3723.31 5846.1 3784.01 5854.71C3873.47 5867.48 3921.27 5865.49 3972.6 5865.19C4071.31 5864.59 4137.8 5857.48 4231.34 5821.48C4236.94 5819.31 4242.48 5817.08 4248.02 5814.68C4301.79 5791.56 4350.87 5758.2 4391 5715.94C4432.77 5671.93 4464.25 5619.25 4485.93 5562.96C4511.2 5497.46 4523.56 5427.62 4527.58 5357.84C4528.62 5340.14 4529.1 5322.44 4529.1 5304.68V4621C4529.1 4557.54 4477.04 4506.07 4412.86 4506.07H4413.04Z" fill="white"/>
<path fill-rule="evenodd" clip-rule="evenodd" d="M2283.12 5907.09C2161.34 5864.1 2073.29 5777.59 2012.09 5655.61C1935.42 5502.82 1878.43 5288.79 1879.83 5116.3C1881.11 4953.57 1891.21 4865.73 1941.39 4781.8C1862.11 4835.93 1800.06 4919.25 1778.14 5016.9C1718.34 5282.83 1848.1 5734.42 2101.48 5888.91C2106.17 5891.74 2114.51 5896.13 2108.48 5905.95C1947.78 5874.76 1793.24 5664.16 1717.73 5371.57C1702.2 5375 1696.23 5385.11 1690.15 5394.93C1634.12 5485.36 1642.71 5579.4 1686.67 5667.84C1781.67 5859.05 1932.99 5959.53 2127.97 5980.6C2180.09 5986.2 2233.07 5986.98 2283.49 5964.65C2298.77 5957.9 2317.95 5949.89 2319.6 5931.53C2321.97 5904.98 2296.09 5911.67 2283.18 5907.09H2283.12Z" fill="white"/>
<path fill-rule="evenodd" clip-rule="evenodd" d="M2753.64 4589.27C2816 4586.92 2815.33 4645.26 2803.33 4973.38V5018.65C2644.7 5018.53 2371.48 5017.69 2223.2 5017.21V5016.84C2223.2 4738.4 2270.64 4613.71 2292.86 4536.89C2219.79 4547.73 2109.88 4581.26 2049.47 4706.55C1974.09 4862.9 1957.65 5098.78 1986.63 5287.7C2013.79 5464.71 2107.63 5781.74 2328.97 5854.47C2344.08 5859.47 2357.53 5843.57 2349.43 5830.03C2308.64 5761.7 2231.24 5585 2221.74 5220.1C2347.18 5222.38 2685.32 5227.62 2803.39 5226.78V5728.16C2803.39 5781.14 2846.81 5824.07 2900.46 5824.07H3013.05C3066.63 5824.07 3110.11 5781.14 3110.11 5728.16V4766.69C3121.8 4498.3 2846.81 4430.33 2753.76 4589.27H2753.64Z" fill="white"/>
<path d="M4893.85 2389.46L4618.95 2664.36L4343.29 2388.7L4219.88 2512.11L4495.54 2787.77L4219.11 3064.2L4342.53 3187.61L4618.95 2911.18L4894.61 3186.84L5018.03 3063.43L4742.36 2787.77L5017.26 2512.87L4893.85 2389.46Z" fill="white"/>
<path d="M364.699 1119.11V182.308H0.300781V16.5294H930.845V182.308H566.447V1119.11H364.699Z" fill="white"/>
<path d="M1073.14 1119.11V16.5294H1816.02V174.489H1267.07V479.457H1780.05V638.98H1267.07V959.587H1816.02V1119.11H1073.14Z" fill="white"/>
<path d="M2205.42 515.428H2469.72C2536.43 515.428 2586.48 500.569 2619.86 470.856C2653.22 441.141 2669.91 399.184 2669.91 344.959C2669.91 290.759 2653.22 248.776 2619.86 219.061C2586.48 189.345 2536.43 174.489 2469.72 174.489H2205.42V515.428ZM2003.67 1119.11V16.5307H2493.18C2614.12 16.5307 2706.39 45.732 2770 104.111C2833.58 162.515 2865.4 242.789 2865.4 344.959C2865.4 446.101 2833.58 526.376 2770 585.805C2706.39 645.235 2614.12 674.951 2493.18 674.951H2205.42V1119.11H2003.67Z" fill="white"/>
<path d="M3045.23 1119.11V16.5294H3246.98V948.639H3766.21V1119.11H3045.23Z" fill="white"/>
<path d="M4036.77 567.037C4036.77 691.127 4063.36 788.092 4116.53 857.931C4169.71 927.795 4248.93 962.715 4354.25 962.715C4456.42 962.715 4535.13 927.795 4590.41 857.931C4645.66 788.092 4673.3 691.127 4673.3 567.037C4673.3 441.923 4645.93 344.957 4591.19 276.144C4536.45 207.331 4457.47 172.924 4354.25 172.924C4248.93 172.924 4169.71 207.331 4116.53 276.144C4063.36 344.957 4036.77 441.923 4036.77 567.037ZM3825.64 567.037C3825.64 451.305 3846.75 351.213 3888.98 266.76C3931.21 182.308 3991.93 116.891 4071.18 70.4868C4150.4 24.1055 4244.78 0.890855 4354.25 0.890855C4462.68 0.890855 4556.52 24.1055 4635.76 70.4868C4714.99 116.891 4776.25 182.308 4819.52 266.76C4862.78 351.213 4884.43 450.792 4884.43 565.475C4884.43 681.205 4862.78 781.567 4819.52 866.532C4776.25 951.523 4714.99 1017.45 4635.76 1064.37C4556.52 1111.29 4462.68 1134.75 4354.25 1134.75C4244.78 1134.75 4150.67 1111.29 4071.96 1064.37C3993.23 1017.45 3932.5 951.523 3889.76 866.532C3847 781.567 3825.64 681.743 3825.64 567.037Z" fill="white"/>
<path d="M5520.91 1119.11V16.5294H6248.15V174.489H5722.66V487.277H6212.18V645.235H5722.66V1119.11H5520.91Z" fill="white"/>
<path d="M6415.47 1119.11V16.5294H7158.35V174.489H6609.4V479.457H7122.38V638.98H6609.4V959.587H7158.35V1119.11H6415.47Z" fill="white"/>
<path d="M7715.1 1134.75C7626.46 1134.75 7544.87 1123.53 7470.34 1101.12C7395.78 1078.72 7331.93 1047.7 7278.76 1008.07L7341.31 850.111C7376.75 875.133 7413.77 896.247 7452.35 913.451C7490.91 930.653 7532.11 943.703 7575.91 952.549C7619.69 961.419 7666.08 965.841 7715.1 965.841C7797.45 965.841 7856.88 952.304 7893.39 925.18C7929.87 898.08 7948.12 862.623 7948.12 818.832C7948.12 780.271 7935.61 750.8 7910.59 730.469C7885.57 710.137 7840.73 693.203 7776.09 679.64L7599.37 643.671C7498.22 622.827 7422.64 587.907 7372.59 538.887C7322.55 489.891 7297.52 424.205 7297.52 341.831C7297.52 273.016 7315.75 213.073 7352.26 161.976C7388.75 110.904 7439.84 71.268 7505.53 43.1173C7571.21 14.9666 7647.85 0.889371 7735.43 0.889371C7813.62 0.889371 7886.08 12.108 7952.82 34.5147C8019.53 56.948 8075.32 89.008 8120.16 130.697L8057.6 280.836C8012.76 243.301 7963.76 215.419 7910.59 197.165C7857.41 178.935 7797.99 169.796 7732.3 169.796C7658.26 169.796 7600.66 184.14 7559.49 212.804C7518.29 241.493 7497.71 280.836 7497.71 330.883C7497.71 369.468 7510.46 400.232 7536.03 423.155C7561.56 446.1 7605.08 463.817 7666.61 476.329L7841.77 510.736C7946.02 531.604 8023.19 565.743 8073.24 613.173C8123.29 660.629 8148.31 724.483 8148.31 804.756C8148.31 870.443 8130.57 928.063 8095.13 977.572C8059.68 1027.11 8009.63 1065.69 7945 1093.3C7880.34 1120.92 7803.7 1134.75 7715.1 1134.75Z" fill="white"/>
<path d="M8575.25 1119.11V182.308H8210.85V16.5294H9141.39V182.308H8777V1119.11H8575.25Z" fill="white"/>
</svg>
