<svg width="5670" height="3944" viewBox="0 0 5670 3944" fill="none" xmlns="http://www.w3.org/2000/svg">
<path fill-rule="evenodd" clip-rule="evenodd" d="M4447.65 3054.17C4260.34 3054.17 4199.2 3222.96 4199.2 3379.16C4199.2 3535.35 4256.55 3741.98 4450.22 3741.98C4643.9 3741.98 4696.14 3525.3 4696.14 3377.9C4696.14 3230.51 4629.89 3054.17 4447.69 3054.17H4447.65ZM4437.48 3866.68C4145.66 3866.68 3987.72 3646.24 3987.72 3371.61C3987.72 3096.97 4185.19 2929.43 4450.22 2929.43C4715.25 2929.43 4907.66 3081.87 4907.66 3359.01C4907.66 3636.14 4729.3 3866.68 4437.52 3866.68H4437.48Z" fill="white"/>
<path fill-rule="evenodd" clip-rule="evenodd" d="M3856 3028.37C3854.49 2986.53 3819.77 2953.38 3777.42 2953.38H3687.81C3658.07 2953.38 3630.87 2969.98 3617.52 2996.26L3415.02 3401.85L3206.6 2994.61C3192.96 2969.21 3166.24 2953.34 3137.16 2953.34H3046.78C3004.22 2953.34 2969.38 2986.81 2968.16 3028.89L2947.16 3762.78C2945.9 3806.55 2981.47 3842.73 3025.79 3842.73H3028.56C3071.28 3842.73 3106.21 3809.01 3107.19 3766.77L3116.86 3357.71C3118.13 3313.62 3119.44 3234.27 3118.13 3211.58H3120.7C3135.98 3251.88 3170.41 3317.37 3192.06 3360.22L3319.98 3591.16C3351.18 3647.49 3432.83 3647.97 3464.76 3592.05L3597.26 3338.86C3618.91 3297.26 3653.3 3225.47 3668.61 3190.21H3671.18C3671.18 3231.81 3673.76 3306.11 3675.02 3359.01L3686.83 3767.22C3688.05 3809.3 3722.89 3842.77 3765.45 3842.77H3803.76C3848.28 3842.77 3883.94 3806.27 3882.34 3762.25L3856.08 3028.37H3856Z" fill="white"/>
<path fill-rule="evenodd" clip-rule="evenodd" d="M2708.19 2952.21H2659.51C2616.46 2952.21 2581.54 2986.69 2581.54 3029.3V3487.9C2581.54 3621.57 2517.9 3694.61 2396.52 3700.79C2275.13 3694.61 2211.5 3621.57 2211.5 3487.9V3029.3C2211.5 2986.73 2176.62 2952.21 2133.53 2952.21H2084.85C2041.8 2952.21 2006.88 2986.69 2006.88 3029.3V3487.9C2006.88 3536.04 2012.31 3584.49 2026.2 3630.73C2038.08 3670.26 2056.34 3708.02 2081.95 3740.69C2105.88 3771.26 2135.98 3796.74 2170.09 3815.64C2206.07 3835.54 2245.56 3851.01 2286.28 3856.78C2346.28 3865.35 2378.34 3864.01 2412.78 3863.81C2478.98 3863.41 2523.58 3858.64 2586.32 3834.49C2590.07 3833.04 2593.79 3831.55 2597.51 3829.93C2633.57 3814.43 2666.49 3792.05 2693.41 3763.71C2721.42 3734.19 2742.54 3698.85 2757.08 3661.1C2774.03 3617.16 2782.32 3570.32 2785.02 3523.52C2785.71 3511.65 2786.04 3499.78 2786.04 3487.86V3029.3C2786.04 2986.73 2751.12 2952.21 2708.07 2952.21H2708.19Z" fill="white"/>
<path fill-rule="evenodd" clip-rule="evenodd" d="M1279.59 3891.92C1197.9 3863.08 1138.84 3805.06 1097.8 3723.24C1046.38 3620.76 1008.15 3477.2 1009.09 3361.51C1009.94 3252.36 1016.72 3193.44 1050.38 3137.15C997.2 3173.46 955.582 3229.34 940.878 3294.84C900.771 3473.2 987.807 3776.1 1157.75 3879.72C1160.9 3881.62 1166.49 3884.57 1162.45 3891.15C1054.67 3870.23 951.007 3728.98 900.362 3532.73C889.947 3535.03 885.944 3541.81 881.86 3548.39C844.284 3609.05 850.043 3672.12 879.532 3731.44C943.247 3859.69 1044.74 3927.09 1175.52 3941.22C1210.48 3944.98 1246.02 3945.5 1279.83 3930.52C1290.08 3926 1302.95 3920.63 1304.05 3908.31C1305.65 3890.5 1288.29 3894.99 1279.63 3891.92H1279.59Z" fill="white"/>
<path fill-rule="evenodd" clip-rule="evenodd" d="M1595.18 3008.01C1637 3006.44 1636.56 3045.57 1628.51 3265.65V3296.01C1522.11 3295.93 1338.85 3295.37 1239.4 3295.04V3294.8C1239.4 3108.04 1271.22 3024.41 1286.12 2972.88C1237.11 2980.15 1163.39 3002.64 1122.87 3086.68C1072.31 3191.55 1061.28 3349.76 1080.72 3476.48C1098.94 3595.2 1161.88 3807.84 1310.34 3856.62C1320.47 3859.97 1329.5 3849.31 1324.07 3840.23C1296.7 3794.4 1244.79 3675.88 1238.42 3431.13C1322.55 3432.66 1549.36 3436.17 1628.55 3435.61V3771.9C1628.55 3807.44 1657.67 3836.23 1693.65 3836.23H1769.17C1805.11 3836.23 1834.28 3807.44 1834.28 3771.9V3127.02C1842.12 2947 1657.67 2901.41 1595.26 3008.01H1595.18Z" fill="white"/>
<path d="M3059.83 1640.21L2875.45 1824.6L2690.55 1639.7L2607.78 1722.48L2792.67 1907.37L2607.27 2092.78L2690.04 2175.56L2875.45 1990.15L3060.34 2175.05L3143.12 2092.27L2958.22 1907.37L3142.61 1722.99L3059.83 1640.21Z" fill="white"/>
<path d="M276.061 872.032V162.328H0V36.7304H704.967V162.328H428.905V872.032H276.061Z" fill="white"/>
<path d="M997.618 883.884C897.294 883.884 818.712 856.243 761.84 800.939C704.968 745.667 676.525 669.838 676.525 573.46C676.525 511.072 688.773 456.568 713.257 409.948C737.729 363.36 771.905 327.012 815.752 300.951C859.588 274.878 910.714 261.851 969.177 261.851C1026.83 261.851 1075.02 274.11 1113.73 298.582C1152.42 323.066 1181.85 357.428 1201.99 401.659C1222.14 445.9 1232.21 497.63 1232.21 556.871V595.97H796.202V517.772H1126.77L1106.62 534.36C1106.62 479.079 1094.96 436.811 1071.67 407.579C1048.36 378.371 1014.59 363.744 970.372 363.744C921.382 363.744 883.676 381.122 857.22 415.879C830.74 450.648 817.528 499.22 817.528 561.607V577.012C817.528 641.79 833.525 690.166 865.508 722.148C897.502 754.143 942.709 770.139 1001.17 770.139C1035.13 770.139 1066.92 765.6 1096.55 756.511C1126.16 747.443 1154.4 732.631 1181.26 712.083L1225.11 811.607C1196.67 834.523 1162.7 852.296 1123.2 864.927C1083.7 877.547 1041.85 883.884 997.618 883.884Z" fill="white"/>
<path d="M1658.74 770.139C1706.13 770.139 1744.04 753.758 1772.47 720.965C1800.92 688.202 1815.14 638.622 1815.14 572.275C1815.14 505.919 1800.92 456.569 1772.47 424.169C1744.04 391.79 1706.13 375.597 1658.74 375.597C1612.12 375.597 1574.61 391.79 1546.18 424.169C1517.74 456.569 1503.53 505.919 1503.53 572.275C1503.53 638.622 1517.74 688.202 1546.18 720.965C1574.61 753.758 1612.12 770.139 1658.74 770.139ZM1357.79 1127.95V422.985C1357.79 398.511 1357 373.634 1355.42 348.338C1353.83 323.066 1351.46 298.187 1348.32 273.693H1491.67L1504.71 399.29H1491.67C1503.53 357.429 1528.59 324.053 1566.91 299.174C1605.21 274.285 1649.64 261.851 1700.21 261.851C1753.11 261.851 1799.32 274.285 1838.83 299.174C1878.31 324.053 1909.12 359.599 1931.24 405.803C1953.34 452.018 1964.42 507.509 1964.42 572.275C1964.42 637.054 1953.34 692.731 1931.24 739.33C1909.12 785.95 1878.31 821.673 1838.83 846.562C1799.32 871.439 1753.11 883.885 1700.21 883.885C1650.44 883.885 1606.6 871.647 1568.69 847.153C1530.77 822.681 1505.49 789.886 1492.86 748.814H1505.9V1127.95H1357.79Z" fill="white"/>
<path d="M2092.37 -0.000110783H2240.48V872.032H2092.37V-0.000110783Z" fill="white"/>
<path d="M2671.73 770.139C2718.33 770.139 2755.44 753.758 2783.11 720.965C2810.74 688.202 2824.57 638.622 2824.57 572.275C2824.57 505.919 2810.74 456.569 2783.11 424.169C2755.44 391.79 2718.33 375.597 2671.73 375.597C2625.11 375.597 2588 391.79 2560.35 424.169C2532.7 456.569 2518.89 505.919 2518.89 572.275C2518.89 638.622 2532.7 688.202 2560.35 720.965C2588 753.758 2625.11 770.139 2671.73 770.139ZM2671.73 883.885C2610.12 883.885 2556.8 871.253 2511.78 845.97C2466.75 820.697 2431.81 784.766 2406.92 738.145C2382.04 691.546 2369.6 636.253 2369.6 572.275C2369.6 508.287 2382.04 453.202 2406.92 406.987C2431.81 360.783 2466.75 325.05 2511.78 299.766C2556.8 274.493 2610.12 261.851 2671.73 261.851C2733.34 261.851 2786.85 274.493 2832.27 299.766C2877.69 325.05 2912.84 360.783 2937.73 406.987C2962.6 453.202 2975.04 508.287 2975.04 572.275C2975.04 636.253 2962.6 691.546 2937.73 738.145C2912.84 784.766 2877.69 820.697 2832.27 845.97C2786.85 871.253 2733.34 883.885 2671.73 883.885Z" fill="white"/>
<path d="M3439.48 872.032V36.7304H3990.42V156.396H3592.32V393.369H3963.17V513.034H3592.32V872.032H3439.48Z" fill="white"/>
<path d="M4373.11 883.884C4272.79 883.884 4194.2 856.243 4137.33 800.939C4080.46 745.667 4052.02 669.838 4052.02 573.46C4052.02 511.072 4064.27 456.568 4088.75 409.948C4113.22 363.36 4147.4 327.012 4191.24 300.951C4235.08 274.878 4286.21 261.851 4344.67 261.851C4402.32 261.851 4450.51 274.11 4489.22 298.582C4527.92 323.066 4557.35 357.428 4577.49 401.659C4597.63 445.9 4607.71 497.63 4607.71 556.871V595.97H4171.69V517.772H4502.26L4482.11 534.36C4482.11 479.079 4470.45 436.811 4447.16 407.579C4423.85 378.371 4390.08 363.744 4345.86 363.744C4296.87 363.744 4259.17 381.122 4232.71 415.879C4206.23 450.648 4193.02 499.22 4193.02 561.607V577.012C4193.02 641.79 4209.02 690.166 4241 722.148C4272.99 754.143 4318.2 770.139 4376.66 770.139C4410.62 770.139 4442.42 765.6 4472.04 756.511C4501.66 747.443 4529.89 732.631 4556.75 712.083L4600.6 811.607C4572.16 834.523 4538.19 852.296 4498.7 864.927C4459.19 877.547 4417.34 883.884 4373.11 883.884Z" fill="white"/>
<path d="M4946.55 883.884C4895.19 883.884 4848 877.755 4804.97 865.519C4761.9 853.283 4725.77 836.102 4696.55 813.975L4738.02 714.451C4768.03 734.999 4801.21 750.787 4837.54 761.84C4873.87 772.914 4910.6 778.428 4947.73 778.428C4987.23 778.428 5016.63 771.73 5036.01 758.287C5055.35 744.867 5065.03 726.71 5065.03 703.783C5065.03 685.626 5058.9 671.208 5046.67 660.539C5034.41 649.882 5014.86 641.79 4988.02 636.254L4869.54 613.743C4818.98 602.691 4780.47 583.734 4754.01 556.871C4727.55 530.03 4714.32 494.867 4714.32 451.415C4714.32 414.3 4724.4 381.518 4744.54 353.075C4764.68 324.644 4793.51 302.332 4831.03 286.138C4868.54 269.954 4912.58 261.851 4963.14 261.851C5007.37 261.851 5049.03 267.772 5088.13 279.624C5127.23 291.467 5160.2 309.24 5187.07 332.934L5144.41 428.906C5119.92 409.17 5091.87 393.775 5060.29 382.702C5028.69 371.648 4997.88 366.112 4967.87 366.112C4926.79 366.112 4896.78 373.426 4877.83 388.03C4858.88 402.656 4849.39 421.416 4849.39 444.31C4849.39 461.7 4855.12 476.118 4866.57 487.554C4878.01 499.011 4895.99 507.51 4920.49 513.035L5038.97 535.546C5091.87 545.819 5131.98 563.79 5159.23 589.458C5186.47 615.124 5200.1 650.079 5200.1 694.31C5200.1 733.815 5189.43 767.771 5168.11 796.202C5146.78 824.644 5117.17 846.375 5079.25 861.363C5041.34 876.363 4997.08 883.884 4946.55 883.884Z" fill="white"/>
<path d="M5576.88 883.884C5505.8 883.884 5452.08 865.332 5415.75 828.196C5379.41 791.071 5361.25 735.394 5361.25 661.131V385.07H5246.32V273.692H5361.25V120.86L5509.35 82.9443V273.692H5669.29V385.07H5509.35V651.658C5509.35 692.731 5517.24 721.556 5533.05 738.146C5548.84 754.735 5570.56 763.023 5598.2 763.023C5613.2 763.023 5626.05 761.84 5636.7 759.471C5647.36 757.103 5657.84 753.956 5668.11 749.998V867.295C5654.69 872.811 5639.86 876.955 5623.68 879.73C5607.5 882.492 5591.88 883.884 5576.88 883.884Z" fill="white"/>
</svg>
