<svg width="152" height="152" viewBox="0 0 152 152" fill="none" xmlns="http://www.w3.org/2000/svg">
<g clip-path="url(#clip0_269_211)">
<path d="M151.181 75.591C151.181 117.339 117.339 151.182 75.5907 151.182C33.8427 151.182 0 117.339 0 75.591C0 33.843 33.8427 0.00030067 75.5907 0.00030067C117.339 0.00030067 151.181 33.843 151.181 75.591Z" fill="#BA8518"/>
<path d="M144.986 75.5907C144.986 113.916 113.917 144.985 75.5913 144.985C37.2646 144.985 6.19531 113.916 6.19531 75.5907C6.19531 37.2653 37.2646 6.19601 75.5913 6.19601C113.917 6.19601 144.986 37.2653 144.986 75.5907Z" fill="#D8AA1A"/>
<path d="M123.59 75.5908C123.59 102.1 102.1 123.591 75.5905 123.591C49.0811 123.591 27.5918 102.1 27.5918 75.5908C27.5918 49.0815 49.0811 27.5908 75.5905 27.5908C102.1 27.5908 123.59 49.0815 123.59 75.5908Z" fill="#BA8518"/>
<mask id="mask0_269_211" style="mask-type:luminance" maskUnits="userSpaceOnUse" x="34" y="101" width="66" height="20">
<path d="M34.8262 101.596H99.1035V120.758H34.8262V101.596Z" fill="white"/>
</mask>
<g mask="url(#mask0_269_211)">
<g opacity="0.5">
<path d="M91.9618 120.758C91.4392 111.526 83.6511 110.846 80.2911 112.744C76.5471 114.86 70.2018 117.482 57.9938 117.099C52.4205 116.926 49.6792 115.911 46.1485 113.442C39.6978 108.927 34.8271 101.596 34.8271 101.596C42.6951 107.527 49.6058 110.378 56.4258 109.783C69.0272 108.684 79.6432 101.834 83.4258 102.467C86.9258 103.048 91.7125 105.91 94.2258 109.61C95.7672 111.878 98.7752 114.828 99.1032 117.622L91.9618 120.758Z" fill="#916818"/>
</g>
</g>
<mask id="mask1_269_211" style="mask-type:luminance" maskUnits="userSpaceOnUse" x="27" y="27" width="77" height="55">
<path d="M27.6387 27.5265H103.676V81.2998H27.6387V27.5265Z" fill="white"/>
</mask>
<g mask="url(#mask1_269_211)">
<g opacity="0.5">
<path d="M87.4577 34.3435C97.867 34.2355 103.676 36.6235 103.676 36.6235C103.676 36.6235 94.2763 30.0501 85.2364 28.4648C81.0817 27.7355 71.4684 26.1688 60.0217 30.0315C56.9417 31.0715 43.4377 35.9768 34.6777 49.7595C26.1804 63.1261 27.7524 78.3701 27.7524 78.3701C27.7524 78.3701 29.283 72.4835 33.971 64.7821C35.223 64.6061 37.1977 64.5715 38.6484 65.7475C39.639 66.5488 40.035 67.6101 40.4497 68.9128C41.715 72.8915 40.7137 76.8074 39.6497 79.3901L44.287 81.3008C45.6684 77.9461 46.9524 72.8088 45.2284 67.3914C44.7857 65.9968 44.043 63.6608 41.8044 61.8488C40.3697 60.6875 38.779 60.1035 37.2737 59.8475C39.139 57.2968 41.3297 54.6568 43.9057 52.0395C60.759 34.9248 74.9164 34.4741 87.4577 34.3435Z" fill="#916818"/>
</g>
</g>
<mask id="mask2_269_211" style="mask-type:luminance" maskUnits="userSpaceOnUse" x="60" y="38" width="64" height="60">
<path d="M60.6582 38.3873H123.625V97.1113H60.6582V38.3873Z" fill="white"/>
</mask>
<g mask="url(#mask2_269_211)">
<g opacity="0.5">
<path d="M117.244 51.7033C117.206 51.6379 117.169 51.5726 117.132 51.5086C116.954 51.1993 116.772 50.8899 116.589 50.5793C113.745 45.9353 110.133 41.8139 105.93 38.3873C100.07 40.8859 74.3675 54.9126 74.3675 54.9126L60.6582 85.6366L62.1742 89.2286L92.8329 96.7193C92.8329 96.7193 106.072 101.771 123.625 75.6046C123.625 67.6233 121.665 60.1046 118.22 53.4819C117.904 52.8913 117.581 52.2979 117.244 51.7033Z" fill="#916818"/>
</g>
</g>
<mask id="mask3_269_211" style="mask-type:luminance" maskUnits="userSpaceOnUse" x="88" y="95" width="23" height="22">
<path d="M88.2598 95.8918H110.228V116.814H88.2598V95.8918Z" fill="white"/>
</mask>
<g mask="url(#mask3_269_211)">
<g opacity="0.5">
<path d="M91.5701 95.8921L88.2607 102.163L101.533 116.813C102.507 116.209 103.457 115.567 104.385 114.896L106.554 113.237C107.833 112.196 109.062 111.095 110.227 109.928L91.5701 95.8921Z" fill="#916818"/>
</g>
</g>
<mask id="mask4_269_211" style="mask-type:luminance" maskUnits="userSpaceOnUse" x="52" y="53" width="10" height="10">
<path d="M52.1367 53.1498H61.3034V62.3564H52.1367V53.1498Z" fill="white"/>
</mask>
<g mask="url(#mask4_269_211)">
<g opacity="0.5">
<path d="M52.9661 62.3574L52.1367 57.6574C52.9927 57.5654 55.0807 58.1748 56.5514 56.8321C57.8901 55.6134 58.8661 53.9081 59.0607 53.1494L61.3034 56.6548C59.3221 63.2094 54.2794 62.2188 52.9661 62.3574Z" fill="#916818"/>
</g>
</g>
<path d="M27.3018 60.5652L39.4604 57.0492C39.4604 57.0492 44.1484 50.1705 53.6778 54.1452C54.9644 54.6812 59.1818 53.2279 59.1818 53.2279C59.1818 53.2279 58.8644 56.7252 53.9831 58.1199C53.8764 58.1492 54.2871 59.0065 54.9164 60.1892C57.4391 64.9439 57.7018 70.5772 55.5738 75.5212L55.5631 75.5465C55.5631 75.5465 49.5018 86.7825 55.6644 88.2865C59.8431 89.3052 67.8364 86.1812 72.2778 74.6292C75.4604 66.3492 75.1311 58.4252 85.3218 55.0612C91.8724 52.8999 119.412 46.1945 119.412 46.1945L122.47 49.0999C123.515 53.1985 120.584 56.4892 116.45 57.6745L113.451 57.9665L85.0164 61.6359L84.7111 63.3172L128.228 59.2399L123.664 66.9319C121.31 72.0025 114.215 71.1132 114.215 71.1132L83.4884 70.1959L82.8764 71.8772L118.464 74.7945C119.176 74.8532 119.519 75.6945 119.052 76.2332L116.203 79.5212C116.203 79.5212 115.48 80.4745 115.182 80.7359C111.754 83.7212 106.68 83.9439 102.25 82.9265L95.4124 81.3559L80.7364 78.1452L79.6658 79.9799C79.6658 79.9799 108.743 87.1145 108.559 87.3185C107.03 89.0119 104.774 90.1172 102.954 90.9359C97.9071 93.2079 92.5151 92.8345 87.6231 90.2479L76.3031 84.2599L74.9271 85.9425C74.9271 85.9425 97.4778 97.4892 104.279 102.452C107.227 104.604 114.979 112.389 114.979 112.389C114.979 112.389 112.019 115.929 111.463 114.988C105.502 104.899 95.7178 101.332 95.7178 101.332L101.04 105.568C102.988 107.359 104.732 109.36 106.239 111.536L109.476 116.211L105.96 118.657L103.556 114.344C101.724 111.057 99.0791 108.297 95.8724 106.329L92.0484 103.981L94.3738 106.067C97.4084 108.789 99.8164 112.135 101.432 115.876L103.362 120.339L99.5391 122.325C99.5391 122.325 96.7364 111.828 92.7618 109.281C89.7364 107.341 83.9978 105.103 78.4938 107.548C73.5391 109.751 61.3191 118.271 42.2738 110.176C30.8284 105.311 32.3871 93.3599 32.3871 93.3599C32.3871 93.3599 33.3458 85.7385 38.6964 79.5212C39.8591 78.1705 42.3058 75.5412 43.2311 74.0185C48.1231 65.9665 40.2764 61.4825 40.2764 61.4825L27.3018 60.5652Z" fill="#D8AA1A"/>
<path d="M60.6587 85.6366C60.5454 85.6873 66.8174 65.4713 66.8174 65.4713C68.9134 57.814 70.7361 52.5153 76.1107 49.514L106.289 35.578L107.116 38.0166C107.116 38.0166 104.677 47.5966 92.3107 50.7326L80.8134 54.914C76.1974 57.178 74.5934 61.8953 73.1494 65.974C71.6681 70.1553 69.7521 81.5646 60.6587 85.6366Z" fill="#D8AA1A"/>
<path fill-rule="evenodd" clip-rule="evenodd" d="M102.866 17.2548C99.9593 16.0788 97.9379 18.3441 96.9459 20.7961C95.9526 23.2481 95.5299 26.8508 98.5366 28.0681C101.542 29.2841 103.73 26.2108 104.666 23.8974C105.602 21.5841 105.694 18.3988 102.866 17.2548ZM97.5459 29.9454C93.0179 28.1121 91.9659 23.6601 93.7113 19.3494C95.4553 15.0374 99.5846 13.6481 103.698 15.3134C107.811 16.9774 109.83 20.5788 108.069 24.9294C106.309 29.2801 102.074 31.7774 97.5459 29.9454Z" fill="#BA8518"/>
<path d="M102.805 17.406C99.3667 16.014 97.5667 19.6953 97.0974 20.8567C94.9614 26.134 97.972 27.6647 98.5974 27.918C101.304 29.0127 103.477 26.4033 104.516 23.8367C105.989 20.1967 104.515 18.098 102.805 17.406ZM98.476 28.2193C95.4894 27.01 95.704 23.4327 96.7947 20.7353C98.768 15.862 101.988 16.7247 102.928 17.1047C105.696 18.2247 105.871 21.354 104.817 23.9593C103.723 26.6647 101.404 29.4047 98.476 28.2193ZM103.637 15.4647C99.4347 13.7633 95.5067 15.3487 93.8627 19.41C91.9894 24.0393 93.46 28.1153 97.608 29.7953C101.816 31.498 106.056 29.4727 107.919 24.8687C109.564 20.802 107.924 17.1993 103.637 15.4647ZM97.4867 30.0967C93.2227 28.37 91.644 24.0273 93.5614 19.2887C95.2774 15.046 99.376 13.3887 103.76 15.162C108.164 16.9447 109.915 20.8033 108.22 24.9913C106.316 29.6953 101.801 31.8433 97.4867 30.0967Z" fill="#BA8518"/>
<path fill-rule="evenodd" clip-rule="evenodd" d="M91.5302 12.5116C91.5889 11.8049 91.0769 11.1796 90.3729 11.0956L88.8822 10.9196C88.3889 10.8609 87.9035 11.0876 87.6289 11.5036L83.4555 17.9263L80.7995 10.6676C80.6235 10.2143 80.2102 9.89425 79.7275 9.83692L78.2249 9.65959C77.5169 9.57559 76.8715 10.0703 76.7675 10.7756L74.9595 23.0756C74.8515 23.8103 75.3702 24.4876 76.1075 24.5756L76.1542 24.5809C76.8635 24.6649 77.5115 24.1663 77.6115 23.4583L78.5862 16.5983C78.6942 15.8583 78.8742 14.5263 78.8969 14.1423L78.9409 14.1476C79.1142 14.8556 79.5569 16.0249 79.8315 16.7876L81.4995 20.9223C81.9062 21.9316 83.2622 22.0996 83.9049 21.2223L86.6115 17.2249C87.0542 16.5676 87.7675 15.4276 88.0929 14.8649L88.1355 14.8703C88.0529 15.5703 87.9475 16.8236 87.8635 17.7169L87.2489 24.6049C87.1849 25.3143 87.6982 25.9462 88.4062 26.0289L89.0422 26.1049C89.7835 26.1929 90.4489 25.6489 90.5089 24.9049L91.5302 12.5116Z" fill="#BA8518"/>
<path d="M88.0063 14.6912L88.317 14.7285L88.2983 14.8898C88.2397 15.3792 88.1717 16.1365 88.1063 16.8672C88.0783 17.1712 88.0517 17.4672 88.0263 17.7325L87.4117 24.6192C87.3557 25.2458 87.801 25.7938 88.425 25.8685L89.0623 25.9432C89.377 25.9805 89.6837 25.8912 89.929 25.6912C90.173 25.4912 90.3223 25.2072 90.3477 24.8925L91.369 12.4978C91.4197 11.8765 90.9743 11.3312 90.3543 11.2578L88.865 11.0818C88.429 11.0298 88.0077 11.2258 87.765 11.5925L83.4157 18.2872L80.6477 10.7232C80.4943 10.3285 80.1343 10.0485 79.709 9.99916L78.2063 9.82049C77.581 9.74716 77.0197 10.1765 76.929 10.7992L75.121 23.1005C75.0743 23.4112 75.1557 23.7192 75.3463 23.9698C75.537 24.2192 75.8143 24.3765 76.1277 24.4138L76.173 24.4192C76.7917 24.4925 77.365 24.0512 77.4517 23.4352L78.425 16.5752C78.5383 15.8085 78.7143 14.4992 78.7357 14.1325L78.7463 13.9605L79.0717 13.9992L79.0983 14.1085C79.2423 14.6925 79.573 15.5992 79.8383 16.3272L79.985 16.7325L81.6503 20.8618C81.8197 21.2805 82.1877 21.5632 82.6343 21.6192C82.637 21.6192 82.6397 21.6192 82.6423 21.6192C83.0863 21.6725 83.509 21.4885 83.7743 21.1258L86.477 17.1338C86.9063 16.4965 87.6237 15.3538 87.953 14.7845L88.0063 14.6912ZM89.025 26.2672L88.3877 26.1912C87.5877 26.0965 87.0157 25.3938 87.0877 24.5898L87.7023 17.7018C87.7277 17.4378 87.7543 17.1418 87.781 16.8378C87.8237 16.3765 87.8663 15.9058 87.9063 15.4965C87.545 16.0885 87.0663 16.8405 86.7463 17.3152L84.0397 21.3138C83.701 21.7765 83.1663 22.0085 82.6037 21.9432C82.601 21.9418 82.597 21.9418 82.593 21.9418C82.0277 21.8712 81.5623 21.5125 81.349 20.9832L79.533 16.4392C79.3543 15.9485 79.1463 15.3792 78.9837 14.8765C78.913 15.4552 78.8103 16.1952 78.7477 16.6218L77.773 23.4805C77.6623 24.2698 76.9263 24.8365 76.1357 24.7418L76.089 24.7365C75.689 24.6898 75.333 24.4872 75.0877 24.1672C74.8423 23.8472 74.7397 23.4512 74.7983 23.0525L76.6063 10.7525C76.725 9.95382 77.4437 9.40316 78.2437 9.49782L79.7477 9.67516C80.2917 9.74049 80.753 10.0978 80.9517 10.6085L83.497 17.5645L87.493 11.4152C87.8037 10.9432 88.3437 10.6925 88.9023 10.7592L90.393 10.9352C91.1343 11.0232 91.6823 11.6378 91.6983 12.3672L91.7077 12.3685L90.6717 24.9192C90.6383 25.3218 90.4477 25.6858 90.1343 25.9432C89.821 26.1992 89.4263 26.3138 89.025 26.2672Z" fill="#BA8518"/>
<path fill-rule="evenodd" clip-rule="evenodd" d="M69.5647 9.38007L68.7607 9.5134C68.05 9.63207 67.5687 10.3041 67.6874 11.0161L68.9594 18.6761C69.3314 20.9094 68.4834 22.3041 66.4954 22.7401C64.4727 22.9707 63.2194 21.9254 62.8487 19.6921L61.5754 12.0307C61.4567 11.3201 60.7847 10.8387 60.074 10.9574L59.27 11.0907C58.558 11.2094 58.078 11.8814 58.1954 12.5921L59.4687 20.2534C59.602 21.0574 59.8261 21.8521 60.1847 22.5867C60.4901 23.2147 60.8967 23.7947 61.41 24.2707C61.89 24.7161 62.458 25.0587 63.074 25.2801C63.7234 25.5147 64.4194 25.6641 65.1074 25.6494C66.122 25.6267 66.6474 25.5174 67.2167 25.4187C68.3087 25.2307 69.0314 25.0294 70.0007 24.4534C70.0594 24.4187 70.1167 24.3841 70.1727 24.3467C70.726 23.9881 71.2074 23.5241 71.5727 22.9774C71.954 22.4067 72.2047 21.7587 72.3394 21.0881C72.498 20.3081 72.5047 19.5027 72.4194 18.7134C72.398 18.5134 72.37 18.3134 72.3367 18.1147L71.0647 10.4547C70.946 9.74273 70.274 9.26273 69.562 9.38007H69.5647Z" fill="#BA8518"/>
<path d="M59.2968 11.2514C58.6754 11.354 58.2528 11.9447 58.3568 12.566L59.6301 20.2274C59.7714 21.082 60.0074 21.8527 60.3314 22.5154C60.6461 23.162 61.0461 23.7114 61.5221 24.1514C61.9861 24.582 62.5274 24.91 63.1301 25.1274C63.8288 25.3794 64.4941 25.4994 65.1048 25.486C66.0034 25.4674 66.5194 25.3767 67.0168 25.2887L67.1888 25.2594C68.2528 25.0754 68.9661 24.8794 69.9181 24.314C69.9741 24.2807 70.0301 24.246 70.0848 24.21C70.6261 23.8594 71.0941 23.402 71.4381 22.886C71.7928 22.3554 72.0434 21.7394 72.1808 21.0554C72.3234 20.354 72.3501 19.5714 72.2581 18.73C72.2368 18.5327 72.2101 18.3367 72.1781 18.1407L70.9048 10.4807C70.8008 9.85936 70.2114 9.43802 69.5901 9.54069L68.7874 9.67402C68.1661 9.77802 67.7448 10.3674 67.8474 10.9887L69.1208 18.65C69.5074 20.974 68.6114 22.4434 66.5301 22.8994C64.3968 23.1434 63.0741 22.042 62.6888 19.7194L61.4154 12.058C61.3128 11.4367 60.7221 11.014 60.1008 11.118L59.2968 11.2514ZM66.7768 25.6607C66.3474 25.7314 65.8608 25.7954 65.1114 25.8114C64.4608 25.826 63.7568 25.6994 63.0194 25.434C62.3754 25.2007 61.7968 24.85 61.3008 24.39C60.7954 23.9234 60.3714 23.3407 60.0381 22.658C59.7021 21.966 59.4568 21.166 59.3088 20.2807L58.0354 12.6194C57.9034 11.8207 58.4448 11.0634 59.2434 10.93L60.0474 10.7967C60.8461 10.6647 61.6034 11.206 61.7368 12.0047L63.0088 19.666C63.3674 21.8194 64.5341 22.8007 66.4768 22.5794C68.3714 22.162 69.1581 20.858 68.7994 18.7034L67.5274 11.042C67.3941 10.2434 67.9354 9.48602 68.7341 9.35402L69.5381 9.21936C70.3368 9.08869 71.0928 9.63002 71.2261 10.4274L72.4981 18.0874C72.5314 18.29 72.5608 18.4927 72.5821 18.6954C72.6768 19.57 72.6488 20.386 72.4994 21.1207C72.3541 21.846 72.0874 22.5007 71.7088 23.0674C71.3354 23.6274 70.8474 24.1034 70.2621 24.4834C70.2034 24.5207 70.1448 24.5567 70.0848 24.5927C69.0888 25.1847 68.3461 25.39 67.2448 25.5794L67.0728 25.61C66.9754 25.626 66.8781 25.6434 66.7768 25.6607Z" fill="#BA8518"/>
<path fill-rule="evenodd" clip-rule="evenodd" d="M50.3512 31.161C48.8992 31.1116 47.6592 30.4756 46.5832 29.365C45.2352 27.973 43.8872 25.8516 43.3058 23.981C42.7578 22.2156 42.5632 21.2303 42.8098 20.1516C42.1485 21.0076 41.7725 22.121 41.8752 23.253C42.1538 26.3343 45.1005 30.777 48.3445 31.585C48.4045 31.5983 48.5098 31.6183 48.4792 31.745C46.6525 31.9556 44.2712 30.205 42.4538 27.297C42.2992 27.3863 42.2698 27.5156 42.2392 27.6436C41.9512 28.813 42.3685 29.801 43.1445 30.6076C44.8205 32.353 46.7858 32.9236 48.9445 32.4863C49.5218 32.369 50.0912 32.197 50.5538 31.7823C50.6938 31.657 50.8712 31.505 50.8258 31.301C50.7592 31.005 50.5058 31.1663 50.3512 31.161Z" fill="#BA8518"/>
<path d="M42.4307 27.563C42.42 27.5937 42.4094 27.6297 42.3987 27.6737C42.1494 28.6937 42.44 29.6403 43.2614 30.495C44.8507 32.1483 46.752 32.7643 48.9134 32.3257C49.4187 32.2243 49.9947 32.0643 50.4454 31.6603C50.5947 31.5283 50.6894 31.4337 50.668 31.3363C50.6587 31.2963 50.648 31.2843 50.648 31.2843C50.6307 31.2777 50.5587 31.2937 50.52 31.3017C50.464 31.3123 50.4067 31.3243 50.3467 31.323C48.9107 31.2737 47.6054 30.6537 46.4667 29.4777C45.0147 27.979 43.7134 25.839 43.1507 24.0283C42.7267 22.659 42.5027 21.7297 42.548 20.8497C42.148 21.591 41.964 22.4297 42.0374 23.2377C42.376 26.983 45.7867 30.7803 48.3854 31.4257C48.4427 31.4403 48.5494 31.4657 48.6094 31.563C48.636 31.607 48.6627 31.679 48.6374 31.783L48.6107 31.8923L48.4987 31.9057C46.6374 32.1203 44.2707 30.4217 42.4307 27.563ZM49.5854 32.491C49.3787 32.5577 49.1734 32.6057 48.9787 32.6443C46.7 33.107 44.6987 32.459 43.0267 30.7203C42.1227 29.779 41.8054 28.731 42.0814 27.6043C42.116 27.4617 42.1614 27.279 42.372 27.155L42.508 27.0763L42.592 27.2097C44.1507 29.7043 46.1014 31.3283 47.7534 31.5683C44.6707 30.4137 41.984 26.2537 41.7134 23.267C41.612 22.151 41.9654 20.979 42.6814 20.051L43.1334 19.4657L42.9694 20.187C42.728 21.243 42.9347 22.2363 43.4614 23.9323C44.0014 25.671 45.3027 27.8083 46.7014 29.251C47.7934 30.3803 48.9894 30.951 50.3574 30.9977C50.3774 30.999 50.4187 30.9897 50.4534 30.983C50.576 30.9577 50.9014 30.8897 50.9854 31.2643C51.0507 31.5577 50.824 31.759 50.6734 31.8937C50.34 32.1923 49.96 32.3723 49.5854 32.491Z" fill="#BA8518"/>
<path fill-rule="evenodd" clip-rule="evenodd" d="M50.8355 15.2945C51.4942 15.0559 51.6888 15.6892 52.6928 19.2812L52.8502 19.7705C51.1515 20.3119 48.2262 21.2345 46.6382 21.7359L46.6368 21.7319C45.6755 18.7185 45.7528 17.2079 45.7248 16.3012C44.9808 16.6679 43.9208 17.4052 43.7075 18.9679C43.4408 20.9172 44.0782 23.5252 45.0408 25.4705C45.9435 27.2932 48.0408 30.4039 50.6608 30.4345C50.8395 30.4372 50.9288 30.2199 50.7955 30.0999C50.1222 29.4999 48.6848 27.8519 47.3235 23.9359C48.6728 23.5332 52.3088 22.4345 53.5688 22.0225L55.2995 27.4479C55.4835 28.0212 56.0955 28.3385 56.6702 28.1545L57.8742 27.7705C58.4475 27.5879 58.7648 26.9745 58.5808 26.4012L55.2622 15.9972C54.4595 13.0532 51.2835 13.2572 50.8368 15.2945H50.8355Z" fill="#BA8518"/>
<path d="M45.5681 16.567C44.5841 17.1217 44.0121 17.935 43.8681 18.9897C43.6241 20.771 44.1414 23.2857 45.1867 25.3977C45.5867 26.2057 47.7281 30.2363 50.6614 30.2723C50.6787 30.2723 50.6881 30.2657 50.6934 30.251C49.9547 29.5697 48.5254 27.8923 47.1694 23.9897L47.1134 23.8297L47.2761 23.7803C48.7187 23.3497 52.2961 22.267 53.5174 21.8683L53.6734 21.8177L55.4547 27.399C55.6094 27.8857 56.1321 28.155 56.6201 28.0003L57.8241 27.615C58.3121 27.4603 58.5814 26.9377 58.4267 26.451L55.1067 16.047C54.6721 14.4537 53.5507 13.915 52.7214 13.9363C51.9414 13.955 51.3147 14.399 51.0654 15.087C51.1401 15.0883 51.2201 15.1057 51.3014 15.147C51.7534 15.379 52.0134 16.251 52.8494 19.2377L53.0534 19.8763L52.8987 19.9257C51.2014 20.467 48.2747 21.3897 46.6867 21.891L46.5321 21.9403L46.4827 21.7857C45.6107 19.0523 45.5841 17.5177 45.5681 16.6003C45.5681 16.5897 45.5681 16.5777 45.5681 16.567ZM50.7734 30.5803C50.7374 30.5923 50.6987 30.5977 50.6574 30.5977C47.5347 30.5603 45.3094 26.3803 44.8947 25.543C43.8227 23.3763 43.2934 20.787 43.5454 18.9457C43.7161 17.699 44.4254 16.759 45.6534 16.155L45.8801 16.043L45.8867 16.2963C45.8907 16.3883 45.8921 16.4883 45.8934 16.595C45.9094 17.4777 45.9347 18.943 46.7441 21.5323C48.3107 21.0377 50.9854 20.1937 52.6441 19.6657L52.5374 19.331C51.8454 16.8537 51.4974 15.6137 51.1521 15.4363C51.1121 15.415 51.0574 15.4003 50.9521 15.4283L50.8854 15.4483L50.8321 15.2937L50.6774 15.259C50.8881 14.299 51.7054 13.6363 52.7134 13.611C53.6601 13.587 54.9374 14.187 55.4187 15.955L58.7361 26.3523C58.9454 27.0097 58.5814 27.715 57.9227 27.9257L56.7187 28.3097C56.0614 28.5203 55.3547 28.155 55.1454 27.4977L53.4641 22.2283C52.1654 22.6483 49.0041 23.603 47.5321 24.043C48.8481 27.7617 50.2054 29.3563 50.9027 29.979C51.0147 30.0777 51.0507 30.231 50.9974 30.3697C50.9574 30.4723 50.8747 30.5483 50.7734 30.5803Z" fill="#BA8518"/>
<path fill-rule="evenodd" clip-rule="evenodd" d="M99.1344 122.937C96.2291 124.116 96.3544 127.15 97.3491 129.601C98.3437 132.052 100.549 134.933 103.554 133.713C106.558 132.494 105.989 128.765 105.05 126.453C104.112 124.14 101.961 121.789 99.1344 122.937ZM104.15 135.75C99.6237 137.588 95.7691 135.122 94.0211 130.814C92.2717 126.505 94.2677 122.632 98.3797 120.964C102.492 119.294 106.448 120.476 108.212 124.824C109.977 129.173 108.677 133.913 104.15 135.75Z" fill="#BA8518"/>
<path d="M99.1954 123.088C95.7581 124.483 97.0287 128.379 97.5007 129.54C99.6407 134.815 102.867 133.817 103.493 133.563C106.198 132.465 105.942 129.08 104.901 126.513C103.423 122.876 100.903 122.395 99.1954 123.088ZM103.615 133.864C100.63 135.076 98.2927 132.357 97.1981 129.663C95.2221 124.791 98.1341 123.168 99.0727 122.787C101.839 121.664 104.145 123.788 105.202 126.392C106.299 129.096 106.542 132.676 103.615 133.864ZM98.4407 121.115C94.2394 122.82 92.5234 126.693 94.1714 130.753C96.0487 135.38 99.9421 137.283 104.089 135.6C108.295 133.893 109.929 129.487 108.062 124.885C106.411 120.82 102.726 119.376 98.4407 121.115ZM104.213 135.901C99.9501 137.632 95.7927 135.612 93.8701 130.875C92.1487 126.635 93.9367 122.591 98.3194 120.813C102.722 119.027 106.663 120.577 108.363 124.763C110.271 129.467 108.526 134.151 104.213 135.901Z" fill="#BA8518"/>
<path fill-rule="evenodd" clip-rule="evenodd" d="M90.7914 126.088C90.6928 125.421 90.0848 124.951 89.4141 125.025L87.9954 125.184C87.5248 125.236 87.1234 125.549 86.9581 125.995L84.4768 132.845L80.4501 126.692C80.1888 126.309 79.7381 126.103 79.2781 126.153L77.8461 126.313C77.1728 126.388 76.6808 126.985 76.7368 127.661L77.7128 139.449C77.7714 140.153 78.3981 140.669 79.1008 140.592L79.1448 140.587C79.8208 140.512 80.3128 139.909 80.2541 139.232L79.6768 132.665C79.6181 131.956 79.4981 130.684 79.4368 130.323L79.4781 130.317C79.7914 130.936 80.4528 131.924 80.8728 132.572L83.3088 136.044C83.9034 136.892 85.1968 136.756 85.6034 135.804L87.2488 131.516C87.5168 130.812 87.9341 129.601 88.1141 129.009L88.1541 129.005C88.2288 129.672 88.4021 130.856 88.5154 131.701L89.4301 138.217C89.5248 138.888 90.1368 139.363 90.8101 139.288L91.4168 139.22C92.1221 139.143 92.6208 138.495 92.5168 137.793L90.7914 126.088Z" fill="#BA8518"/>
<path d="M87.9952 128.868L88.2912 128.834L88.3085 128.989C88.3605 129.456 88.4605 130.17 88.5565 130.864C88.5965 131.15 88.6352 131.43 88.6699 131.681L89.5845 138.196C89.6672 138.789 90.1992 139.201 90.7925 139.134L91.3992 139.068C91.6979 139.034 91.9645 138.884 92.1472 138.646C92.3312 138.408 92.4085 138.113 92.3645 137.816L90.6379 126.11C90.5512 125.524 90.0219 125.114 89.4312 125.18L88.0125 125.338C87.5979 125.384 87.2485 125.657 87.1045 126.049L84.5165 133.19L80.3205 126.777C80.0925 126.444 79.6992 126.262 79.2952 126.308L77.8645 126.468C77.2699 126.533 76.8419 127.053 76.8912 127.649L77.8672 139.437C77.8912 139.736 78.0325 140.004 78.2632 140.194C78.4952 140.385 78.7859 140.472 79.0832 140.438L79.1272 140.433C79.7152 140.368 80.1512 139.836 80.0992 139.246L79.5232 132.678C79.4632 131.945 79.3432 130.693 79.2845 130.349L79.2565 130.188L79.5672 130.153L79.6152 130.248C79.8739 130.758 80.3752 131.526 80.7792 132.145L81.0019 132.489L83.4352 135.956C83.6819 136.306 84.0845 136.49 84.5099 136.445C84.5125 136.445 84.5152 136.445 84.5179 136.444C84.9419 136.397 85.2939 136.136 85.4605 135.744L87.1045 131.461C87.3659 130.777 87.7832 129.564 87.9659 128.965L87.9952 128.868ZM91.4339 139.374L90.8272 139.442C90.0659 139.528 89.3845 138.998 89.2779 138.238L88.3632 131.724C88.3285 131.473 88.2899 131.193 88.2499 130.906C88.1885 130.469 88.1272 130.024 88.0765 129.636C87.8685 130.262 87.5872 131.062 87.3939 131.572L85.7472 135.86C85.5339 136.361 85.0885 136.692 84.5525 136.752C84.5485 136.752 84.5459 136.753 84.5419 136.753C84.0032 136.809 83.4939 136.578 83.1832 136.134L80.5192 132.314C80.2485 131.898 79.9339 131.416 79.6739 130.984C79.7339 131.536 79.7979 132.244 79.8312 132.652L80.4072 139.218C80.4739 139.974 79.9152 140.657 79.1619 140.741L79.1179 140.745C78.7365 140.788 78.3632 140.677 78.0672 140.433C77.7712 140.189 77.5899 139.845 77.5592 139.462L76.5832 127.674C76.5192 126.91 77.0672 126.245 77.8299 126.16L79.2605 126.001C79.7792 125.942 80.2832 126.174 80.5779 126.605L84.4365 132.502L86.8139 125.942C86.9992 125.438 87.4459 125.089 87.9779 125.03L89.3965 124.873C90.1032 124.794 90.7432 125.245 90.9152 125.918H90.9245L92.6699 137.77C92.7259 138.152 92.6285 138.53 92.3925 138.836C92.1579 139.141 91.8165 139.332 91.4339 139.374Z" fill="#BA8518"/>
<path fill-rule="evenodd" clip-rule="evenodd" d="M72.8311 126.241L72.0257 126.12C71.3124 126.012 70.6471 126.501 70.5391 127.215L69.3791 134.895C69.0404 137.132 67.8031 138.196 65.7777 137.996C63.7831 137.589 62.9151 136.207 63.2524 133.968L64.4137 126.289C64.5217 125.577 64.0311 124.912 63.3177 124.804L62.5124 124.681C61.7991 124.575 61.1337 125.064 61.0257 125.777L59.8657 133.456C59.7444 134.263 59.7111 135.088 59.8244 135.896C59.9204 136.588 60.1271 137.265 60.4684 137.877C60.7871 138.449 61.2217 138.951 61.7377 139.352C62.2831 139.776 62.8977 140.133 63.5577 140.332C64.5297 140.625 65.0631 140.684 65.6337 140.767C66.7311 140.925 67.4817 140.957 68.5804 140.709C68.6471 140.695 68.7124 140.679 68.7777 140.661C69.4137 140.492 70.0151 140.2 70.5324 139.792C71.0711 139.368 71.5111 138.829 71.8471 138.233C72.2391 137.54 72.4937 136.776 72.6577 136C72.6991 135.803 72.7337 135.604 72.7644 135.405L73.9244 127.727C74.0324 127.015 73.5417 126.349 72.8284 126.241H72.8311Z" fill="#BA8518"/>
<path d="M62.488 124.843C61.8653 124.748 61.2813 125.179 61.1867 125.802L60.0267 133.482C59.8973 134.338 59.8827 135.143 59.9853 135.874C60.0853 136.586 60.296 137.234 60.6107 137.798C60.92 138.351 61.3333 138.831 61.8387 139.224C62.4253 139.68 63.02 140 63.6053 140.176C64.4667 140.436 64.984 140.51 65.484 140.58L65.6573 140.606C66.7253 140.76 67.4653 140.794 68.5453 140.551C68.6093 140.536 68.672 140.522 68.736 140.504C69.36 140.338 69.9453 140.048 70.4333 139.664C70.9347 139.27 71.3627 138.762 71.7053 138.154C72.0587 137.53 72.3253 136.794 72.4987 135.967C72.54 135.772 72.5747 135.578 72.604 135.382L73.764 127.703C73.8587 127.08 73.428 126.496 72.8053 126.402L72.0013 126.28C71.3787 126.187 70.7947 126.616 70.7 127.24L69.54 134.919C69.188 137.247 67.8813 138.367 65.7613 138.158C63.6573 137.73 62.7413 136.274 63.0933 133.944L64.2533 126.266C64.3467 125.643 63.9173 125.059 63.2933 124.964L62.488 124.843ZM65.1413 140.86C64.712 140.795 64.228 140.704 63.5107 140.488C62.888 140.3 62.2573 139.962 61.6387 139.482C61.0987 139.06 60.6573 138.548 60.3267 137.956C59.992 137.356 59.7693 136.671 59.6627 135.919C59.5573 135.158 59.5707 134.32 59.7053 133.432L60.8653 125.754C60.9867 124.954 61.736 124.4 62.536 124.522L63.3427 124.643C64.1427 124.764 64.696 125.514 64.5747 126.314L63.4147 133.994C63.088 136.152 63.8947 137.446 65.8107 137.836C67.74 138.027 68.892 137.03 69.2187 134.87L70.3787 127.191C70.5 126.391 71.2493 125.838 72.0493 125.959L72.856 126.08C73.6547 126.203 74.2067 126.952 74.0867 127.751L72.9253 135.43C72.8947 135.632 72.8587 135.834 72.8173 136.034C72.636 136.894 72.3573 137.66 71.988 138.314C71.6253 138.958 71.1693 139.499 70.6333 139.92C70.1053 140.336 69.4947 140.639 68.82 140.819C68.7533 140.836 68.6853 140.852 68.6173 140.868C67.4867 141.123 66.7187 141.088 65.6107 140.927L65.4387 140.903C65.3413 140.888 65.2427 140.875 65.1413 140.86Z" fill="#BA8518"/>
<path fill-rule="evenodd" clip-rule="evenodd" d="M45.9413 135.645C44.7586 134.802 44.0759 133.586 43.7933 132.066C43.4386 130.162 43.4866 127.649 44.0359 125.768C44.5546 123.993 44.9359 123.065 45.7386 122.301C44.7133 122.65 43.7853 123.37 43.2453 124.37C41.7746 127.093 41.7773 132.425 44.0346 134.889C44.0773 134.934 44.1533 135.009 44.0586 135.097C42.4186 134.264 41.4026 131.489 41.4933 128.061C41.3146 128.05 41.2186 128.142 41.1226 128.232C40.2373 129.048 40.0386 130.101 40.2399 131.202C40.6733 133.582 41.9959 135.145 44.0373 135.973C44.5826 136.193 45.1533 136.365 45.7666 136.276C45.9533 136.248 46.1853 136.22 46.2599 136.024C46.3679 135.741 46.0666 135.734 45.9413 135.645Z" fill="#BA8518"/>
<path d="M41.3268 128.271C41.3002 128.289 41.2722 128.315 41.2402 128.345C40.4668 129.057 40.1868 130.007 40.4002 131.173C40.8108 133.429 42.0548 134.993 44.0988 135.823C44.5762 136.016 45.1455 136.201 45.7442 136.115C45.9402 136.087 46.0722 136.06 46.1082 135.967C46.1228 135.928 46.1202 135.912 46.1202 135.912C46.1095 135.897 46.0415 135.871 46.0042 135.856C45.9508 135.835 45.8962 135.812 45.8482 135.777C44.6788 134.944 43.9322 133.705 43.6335 132.096C43.2508 130.044 43.3482 127.543 43.8802 125.723C44.2828 124.347 44.6095 123.448 45.1335 122.74C44.3908 123.136 43.7735 123.735 43.3895 124.448C41.6015 127.757 42.3468 132.807 44.1562 134.78C44.1962 134.824 44.2708 134.904 44.2668 135.019C44.2655 135.069 44.2468 135.145 44.1695 135.217L44.0868 135.293L43.9855 135.243C42.3148 134.393 41.2815 131.669 41.3268 128.271ZM44.5668 136.332C44.3588 136.272 44.1615 136.199 43.9762 136.124C41.8228 135.251 40.5122 133.604 40.0802 131.232C39.8455 129.948 40.1602 128.899 41.0135 128.112C41.1202 128.013 41.2588 127.885 41.5028 127.899L41.6602 127.907L41.6562 128.065C41.5775 131.005 42.3068 133.437 43.5508 134.549C41.6202 131.884 41.6775 126.932 43.1028 124.293C43.6348 123.308 44.5762 122.525 45.6855 122.148L46.3868 121.909L45.8508 122.42C45.0655 123.167 44.6908 124.109 44.1922 125.813C43.6815 127.561 43.5855 130.063 43.9535 132.037C44.2402 133.581 44.9215 134.719 46.0362 135.513C46.0522 135.525 46.0908 135.54 46.1242 135.553C46.2415 135.6 46.5495 135.723 46.4122 136.083C46.3055 136.363 46.0042 136.405 45.8055 136.435C45.3615 136.499 44.9455 136.439 44.5668 136.332Z" fill="#BA8518"/>
<path fill-rule="evenodd" clip-rule="evenodd" d="M55.1104 122.687C55.7918 122.852 55.6038 123.488 54.4558 127.036L54.3158 127.531C52.6024 127.043 49.6531 126.196 48.0531 125.738C48.0531 125.736 48.0544 125.735 48.0544 125.734C48.9171 122.691 49.8171 121.474 50.2944 120.702C49.4718 120.596 48.1811 120.626 47.1398 121.81C45.8398 123.287 44.9318 125.815 44.6584 127.968C44.4038 129.986 44.4344 133.736 46.5998 135.21C46.7478 135.311 46.9424 135.179 46.8971 135.006C46.6678 134.134 46.3798 131.966 47.4078 127.95C48.7571 128.359 52.3931 129.452 53.6718 129.806L52.1171 135.284C51.9531 135.863 52.2891 136.466 52.8678 136.63L54.0851 136.975C54.6638 137.139 55.2664 136.803 55.4304 136.224L58.4118 125.719C59.3704 122.822 56.6078 121.236 55.1104 122.687Z" fill="#BA8518"/>
<path d="M50.0174 120.838C48.8908 120.757 47.9641 121.12 47.2614 121.918C46.0748 123.268 45.1161 125.65 44.8201 127.989C44.7068 128.882 44.2654 133.426 46.6921 135.076C46.7054 135.085 46.7174 135.085 46.7294 135.077C46.4908 134.1 46.2254 131.912 47.2508 127.91L47.2934 127.745L47.4561 127.794C48.8961 128.232 52.4761 129.306 53.7148 129.649L53.8734 129.693L52.2734 135.329C52.1348 135.821 52.4214 136.334 52.9134 136.474L54.1294 136.818C54.6214 136.958 55.1348 136.672 55.2748 136.181L58.2548 125.674C58.7734 124.108 58.1361 123.038 57.4334 122.598C56.7734 122.184 56.0054 122.206 55.4174 122.642C55.4788 122.685 55.5361 122.742 55.5814 122.822C55.8294 123.265 55.5654 124.136 54.6108 127.086L54.4281 127.733L54.2721 127.688C52.5588 127.201 49.6094 126.354 48.0081 125.894L47.8534 125.849L47.8974 125.693C48.6801 122.934 49.5054 121.64 49.9988 120.866C50.0054 120.857 50.0121 120.848 50.0174 120.838ZM46.6148 135.394C46.5774 135.385 46.5414 135.368 46.5081 135.345C43.9254 133.588 44.3801 128.874 44.4974 127.948C44.8014 125.55 45.7908 123.098 47.0174 121.704C47.8481 120.758 48.9588 120.368 50.3161 120.541L50.5668 120.574L50.4334 120.789C50.3841 120.868 50.3308 120.952 50.2734 121.041C49.7988 121.785 49.0108 123.021 48.2548 125.626C49.8334 126.08 52.5294 126.854 54.2041 127.33L54.3001 126.993C55.0908 124.545 55.4868 123.32 55.2974 122.981C55.2748 122.941 55.2374 122.898 55.1348 122.864L55.0681 122.845L55.1094 122.685L54.9988 122.572C55.7054 121.886 56.7521 121.786 57.6068 122.322C58.4094 122.825 59.1414 124.03 58.5668 125.77L55.5881 136.269C55.3988 136.933 54.7054 137.321 54.0401 137.132L52.8241 136.786C52.1601 136.598 51.7721 135.905 51.9614 135.24L53.4708 129.92C52.1574 129.552 48.9934 128.601 47.5241 128.156C46.5668 131.981 46.8174 134.061 47.0548 134.965C47.0921 135.109 47.0388 135.257 46.9174 135.342C46.8268 135.406 46.7161 135.424 46.6148 135.394Z" fill="#BA8518"/>
</g>
<defs>
<clipPath id="clip0_269_211">
<rect width="151.18" height="151.18" fill="white"/>
</clipPath>
</defs>
</svg>
