<?xml version="1.0" encoding="UTF-8" standalone="no"?>
<svg
   xmlns:dc="http://purl.org/dc/elements/1.1/"
   xmlns:cc="http://creativecommons.org/ns#"
   xmlns:rdf="http://www.w3.org/1999/02/22-rdf-syntax-ns#"
   xmlns:svg="http://www.w3.org/2000/svg"
   xmlns="http://www.w3.org/2000/svg"
   viewBox="0 0 1889.76 1133.8586"
   height="1133.8586"
   width="1889.76"
   xml:space="preserve"
   id="svg2"
   version="1.1"><metadata
     id="metadata8"><rdf:RDF><cc:Work
         rdf:about=""><dc:format>image/svg+xml</dc:format><dc:type
           rdf:resource="http://purl.org/dc/dcmitype/StillImage" /></cc:Work></rdf:RDF></metadata><defs
     id="defs6"><clipPath
       id="clipPath18"
       clipPathUnits="userSpaceOnUse"><path
         id="path16"
         d="M 0,850.394 H 1417.323 V 0 H 0 Z" /></clipPath></defs><g
     transform="matrix(1.3333333,0,0,-1.3333333,0,1133.8587)"
     id="g10"><g
       id="g12"><g
         clip-path="url(#clipPath18)"
         id="g14"><g
           transform="translate(1059.2164,448.2746)"
           id="g20"><path
             id="path22"
             style="fill:#e0ba47;fill-opacity:1;fill-rule:nonzero;stroke:none"
             d="M 0,0 C 34.498,-2.337 36.429,-4.232 38.81,-38.084 41.192,-4.232 43.123,-2.337 77.621,0 43.123,2.337 41.192,4.232 38.81,38.084 36.429,4.232 34.498,2.337 0,0" /></g><g
           transform="translate(1242.5688,313.4497)"
           id="g24"><path
             id="path26"
             style="fill:#e0ba47;fill-opacity:1;fill-rule:nonzero;stroke:none"
             d="m 0,0 -32.91,-50.064 -29.7,52.033 6.97,-59.505 -56.197,20.769 43.588,-41.104 -56.399,-20.213 59.811,-3.469 -30.212,-51.737 48.049,35.789 10.111,-59.053 13.803,58.301 45.705,-38.737 -26.901,53.533 59.911,-0.297 -55.018,23.717 46.085,38.284 -57.391,-17.197 z" /></g><g
           transform="translate(1006.929,358.3914)"
           id="g28"><path
             id="path30"
             style="fill:#e0ba47;fill-opacity:1;fill-rule:nonzero;stroke:none"
             d="m 0,0 c 0,-8.721 7.07,-15.79 15.79,-15.79 8.721,0 15.791,7.069 15.791,15.79 0,8.721 -7.07,15.79 -15.791,15.79 C 7.07,15.79 0,8.721 0,0" /></g><g
           transform="translate(1021.5046,246.6446)"
           id="g32"><path
             id="path34"
             style="fill:#e0ba47;fill-opacity:1;fill-rule:nonzero;stroke:none"
             d="m 0,0 c 0,-8.721 7.07,-15.79 15.79,-15.79 8.721,0 15.791,7.069 15.791,15.79 0,8.721 -7.07,15.79 -15.791,15.79 C 7.07,15.79 0,8.721 0,0" /></g><g
           transform="translate(846.5966,324.3815)"
           id="g36"><path
             id="path38"
             style="fill:#e0ba47;fill-opacity:1;fill-rule:nonzero;stroke:none"
             d="m 0,0 c 0,-19.454 15.771,-35.225 35.225,-35.225 19.454,0 35.224,15.771 35.224,35.225 0,19.454 -15.77,35.225 -35.224,35.225 C 15.771,35.225 0,19.454 0,0" /></g><g
           transform="translate(334.5675,146.5116)"
           id="g40"><path
             id="path42"
             style="fill:#e0ba47;fill-opacity:1;fill-rule:evenodd;stroke:none"
             d="m 0,0 c -39.746,14.189 -68.483,42.747 -88.456,83.01 -25.02,50.439 -43.621,121.088 -43.164,178.025 0.417,53.717 3.716,82.712 20.092,110.415 -25.875,-17.866 -46.126,-45.37 -53.281,-77.605 -19.515,-87.78 22.835,-236.849 105.527,-287.843 1.53,-0.934 4.253,-2.385 2.286,-5.624 -52.446,10.294 -102.884,79.81 -127.527,176.394 -5.067,-1.133 -7.015,-4.471 -9.002,-7.711 -18.284,-29.849 -15.482,-60.891 -1.133,-90.085 31.002,-63.117 80.387,-96.286 144.021,-103.241 17.012,-1.848 34.301,-2.107 50.756,5.266 4.988,2.226 11.248,4.869 11.785,10.93 C 12.679,0.696 4.233,-1.51 0.02,0 Z" /></g><g
           transform="translate(488.1278,581.5165)"
           id="g44"><path
             id="path46"
             style="fill:#e0ba47;fill-opacity:1;fill-rule:evenodd;stroke:none"
             d="m 0,0 c 20.35,0.775 20.132,-18.482 16.217,-126.791 v -14.945 c -51.77,0.04 -140.941,0.318 -189.333,0.477 v 0.119 c 0,91.914 15.482,133.071 22.735,158.43 -23.847,-3.577 -59.719,-14.647 -79.433,-56.003 -24.603,-51.611 -29.969,-129.474 -20.509,-191.836 8.863,-58.427 39.488,-163.08 111.727,-187.087 4.929,-1.649 9.321,3.597 6.678,8.069 -13.315,22.556 -38.574,80.884 -41.675,201.335 40.939,-0.755 151.295,-2.484 189.829,-2.206 v -165.504 c 0,-17.488 14.17,-31.658 31.678,-31.658 H 84.66 c 17.488,0 31.678,14.17 31.678,31.658 V -58.566 C 120.154,30.028 30.406,52.465 0.04,0 Z" /></g></g></g></g></svg>