<svg width="6041" height="1511" viewBox="0 0 6041 1511" fill="none" xmlns="http://www.w3.org/2000/svg">
<g clip-path="url(#clip0_277_228)">
<path fill-rule="evenodd" clip-rule="evenodd" d="M5355.53 185.972C5076.27 185.972 4985.12 437.627 4985.12 670.499C4985.12 903.371 5070.61 1211.44 5359.37 1211.44C5648.12 1211.44 5726 888.379 5726 668.632C5726 448.886 5627.24 185.972 5355.59 185.972H5355.53ZM5340.37 1397.35C4905.29 1397.35 4669.81 1068.69 4669.81 659.24C4669.81 249.79 4964.23 0.000408809 5359.37 0.000408809C5754.5 0.000408809 6041.37 227.272 6041.37 640.458C6041.37 1053.64 5775.45 1397.35 5340.43 1397.35H5340.37Z" fill="white"/>
<path fill-rule="evenodd" clip-rule="evenodd" d="M4473.43 147.502C4471.18 85.1304 4419.42 35.7024 4356.27 35.7024H4222.67C4178.34 35.7024 4137.79 60.4464 4117.87 99.6397L3815.97 704.334L3505.23 97.1717C3484.89 59.3024 3445.07 35.6423 3401.71 35.6423H3266.95C3203.5 35.6423 3151.56 85.5517 3149.74 148.285L3118.44 1242.44C3116.55 1307.7 3169.59 1361.65 3235.66 1361.65H3239.8C3303.49 1361.65 3355.55 1311.38 3357.02 1248.4L3371.45 638.532C3373.33 572.788 3375.28 454.486 3373.33 420.65H3377.17C3399.94 480.736 3451.28 578.386 3483.55 642.264L3674.27 986.574C3720.79 1070.56 3842.52 1071.28 3890.13 987.898L4087.67 610.416C4119.94 548.405 4171.22 441.361 4194.05 388.802H4197.89C4197.89 450.813 4201.72 561.59 4203.61 640.458L4221.21 1249.07C4223.04 1311.8 4274.98 1361.71 4338.43 1361.71H4395.55C4461.92 1361.71 4515.08 1307.28 4512.71 1241.66L4473.55 147.502H4473.43Z" fill="white"/>
<path fill-rule="evenodd" clip-rule="evenodd" d="M2762.15 33.9574H2689.57C2625.38 33.9574 2573.32 85.3721 2573.32 148.888V832.632C2573.32 1031.91 2478.45 1140.82 2297.47 1150.03C2116.5 1140.82 2021.63 1031.91 2021.63 832.632V148.888C2021.63 85.4321 1969.63 33.9574 1905.38 33.9574H1832.8C1768.62 33.9574 1716.55 85.3721 1716.55 148.888V832.632C1716.55 904.396 1724.65 976.641 1745.36 1045.58C1763.08 1104.52 1790.3 1160.81 1828.48 1209.51C1864.16 1255.09 1909.04 1293.08 1959.88 1321.25C2013.53 1350.93 2072.41 1373.99 2133.12 1382.6C2222.58 1395.36 2270.38 1393.38 2321.71 1393.08C2420.42 1392.47 2486.91 1385.37 2580.45 1349.37C2586.05 1347.2 2591.59 1344.97 2597.13 1342.57C2650.9 1319.45 2699.98 1286.09 2740.11 1243.83C2781.88 1199.82 2813.36 1147.14 2835.04 1090.85C2860.31 1025.35 2872.67 955.509 2876.69 885.732C2877.73 868.032 2878.21 850.332 2878.21 832.572V148.888C2878.21 85.4321 2826.15 33.9574 2761.97 33.9574H2762.15Z" fill="white"/>
<path fill-rule="evenodd" clip-rule="evenodd" d="M632.232 1434.98C510.445 1391.99 422.395 1305.48 361.197 1183.5C284.532 1030.7 227.536 816.677 228.937 644.19C230.216 481.457 240.324 393.62 290.5 309.693C211.217 363.818 149.167 447.141 127.245 544.793C67.4481 810.717 197.212 1262.31 450.588 1416.8C455.276 1419.63 463.619 1424.02 457.591 1433.83C296.893 1402.65 142.347 1192.05 66.8401 899.458C51.3121 902.89 45.3441 913.004 39.2548 922.818C-16.7665 1013.24 -8.1812 1107.28 35.7841 1195.72C130.777 1386.93 282.096 1487.42 477.076 1508.49C529.201 1514.09 582.177 1514.87 632.597 1492.53C647.881 1485.79 667.063 1477.78 668.707 1459.42C671.081 1432.87 645.203 1439.55 632.293 1434.98H632.232Z" fill="white"/>
<path fill-rule="evenodd" clip-rule="evenodd" d="M1102.75 117.16C1165.11 114.812 1164.44 173.151 1152.44 501.265V546.539C993.814 546.419 720.586 545.576 572.311 545.095V544.733C572.311 266.287 619.747 141.603 641.973 64.7826C568.902 75.6186 458.99 109.153 398.583 234.439C323.198 390.789 306.757 626.672 335.742 815.593C362.899 992.595 456.737 1309.63 678.083 1382.36C693.185 1387.36 706.642 1371.46 698.543 1357.92C657.745 1289.58 580.349 1112.88 570.85 747.984C696.29 750.272 1034.43 755.509 1152.5 754.667V1256.05C1152.5 1309.03 1195.92 1351.96 1249.56 1351.96H1362.16C1415.74 1351.96 1459.22 1309.03 1459.22 1256.05V294.583C1470.91 26.1906 1195.92 -41.78 1102.87 117.16H1102.75Z" fill="white"/>
</g>
<defs>
<clipPath id="clip0_277_228">
<rect width="6041" height="1511" fill="white"/>
</clipPath>
</defs>
</svg>
