<svg width="152" height="152" viewBox="0 0 152 152" fill="none" xmlns="http://www.w3.org/2000/svg">
<g clip-path="url(#clip0_270_392)">
<path d="M151.181 75.591C151.181 117.339 117.339 151.182 75.5907 151.182C33.8427 151.182 0 117.339 0 75.591C0 33.843 33.8427 0.00030067 75.5907 0.00030067C117.339 0.00030067 151.181 33.843 151.181 75.591Z" fill="#BA8518"/>
<path d="M144.986 75.5917C144.986 113.917 113.917 144.986 75.5913 144.986C37.2646 144.986 6.19531 113.917 6.19531 75.5917C6.19531 37.2663 37.2646 6.19699 75.5913 6.19699C113.917 6.19699 144.986 37.2663 144.986 75.5917Z" fill="#D8AA1A"/>
<path d="M123.59 75.5918C123.59 102.101 102.1 123.592 75.5905 123.592C49.0811 123.592 27.5918 102.101 27.5918 75.5918C27.5918 49.0825 49.0811 27.5918 75.5905 27.5918C102.1 27.5918 123.59 49.0825 123.59 75.5918Z" fill="#BA8518"/>
<mask id="mask0_270_392" style="mask-type:luminance" maskUnits="userSpaceOnUse" x="60" y="42" width="7" height="25">
<path d="M60.7412 42.9006H66.8812V66.9766H60.7412V42.9006Z" fill="white"/>
</mask>
<g mask="url(#mask0_270_392)">
<g opacity="0.5">
<path d="M66.3585 66.4163C66.5212 67.8123 60.7412 66.155 60.7412 66.155V48.2563L66.8812 42.9003C66.8812 42.9003 65.0519 55.1803 66.3585 66.4163Z" fill="#916818"/>
</g>
</g>
<mask id="mask1_270_392" style="mask-type:luminance" maskUnits="userSpaceOnUse" x="38" y="52" width="56" height="60">
<path d="M38.3145 52.0884H93.5331V111.039H38.3145V52.0884Z" fill="white"/>
</mask>
<g mask="url(#mask1_270_392)">
<g opacity="0.5">
<path d="M89.6135 77.3904L66.7508 76.9984C66.7508 76.9984 66.4895 87.1891 70.1468 95.9424C70.8241 97.5611 77.5481 106.632 71.4108 105.828C70.6748 105.73 70.2775 105.653 70.2775 105.653C70.4241 112.733 60.1935 110.797 60.1935 110.797C54.7761 110.313 49.6535 108.12 45.5628 104.534L45.2201 104.234C45.1948 104.212 45.1695 104.189 45.1428 104.166C41.7175 101.136 39.4948 96.9744 38.5655 92.4971L38.3135 91.2824L39.8375 89.5397L41.3615 79.5237L45.1948 83.0077L47.5455 72.4264L51.5961 95.4197L46.6748 65.6757L48.5908 56.4437L52.5975 52.0891L61.5681 65.9371L93.5335 71.7731L89.6135 77.3904Z" fill="#916818"/>
</g>
</g>
<mask id="mask2_270_392" style="mask-type:luminance" maskUnits="userSpaceOnUse" x="87" y="42" width="19" height="65">
<path d="M87.5244 42.378H105.363V106.863H87.5244V42.378Z" fill="white"/>
</mask>
<g mask="url(#mask2_270_392)">
<g opacity="0.5">
<path d="M96.2768 42.3777L101.502 45.4804C103.593 46.9644 104.319 50.0084 104.611 51.691C104.611 51.691 105.835 88.2297 105.161 100.383C104.779 107.256 97.5834 106.859 97.5834 106.859C88.6994 106.916 87.5234 96.203 87.5234 96.203L96.2768 42.3777Z" fill="#916818"/>
</g>
</g>
<path fill-rule="evenodd" clip-rule="evenodd" d="M65.4884 103.441C60.2164 101.559 56.4044 97.7706 53.7551 92.4292C50.4351 85.7386 47.9684 76.3666 48.0284 68.8146C48.0844 61.6892 48.5218 57.8426 50.6938 54.1679C47.2618 56.5372 44.5751 60.1866 43.6258 64.4626C41.0378 76.1066 46.6551 95.8799 57.6244 102.645C57.8271 102.769 58.1884 102.961 57.9271 103.391C50.9711 102.025 44.2804 92.8039 41.0111 79.9919C40.3391 80.1426 40.0804 80.5852 39.8164 81.0146C37.3911 84.9746 37.7631 89.0919 39.6671 92.9652C43.7791 101.337 50.3298 105.737 58.7711 106.66C61.0284 106.905 63.3218 106.94 65.5044 105.961C66.1658 105.667 66.9964 105.316 67.0671 104.512C67.1698 103.349 66.0498 103.641 65.4911 103.441H65.4884Z" fill="#D8AA1A"/>
<path d="M40.6121 80.9463C40.5348 81.045 40.4574 81.1676 40.3668 81.3156C38.2521 84.7676 38.2121 88.585 40.2294 92.689C44.1254 100.622 50.3868 105.114 58.8401 106.037C60.8121 106.253 63.1188 106.344 65.2481 105.39C65.9481 105.077 66.4081 104.844 66.4428 104.457C66.4561 104.298 66.4308 104.245 66.4308 104.244C66.3748 104.201 66.0921 104.172 65.9414 104.156C65.7214 104.133 65.4948 104.109 65.2788 104.032C60.0628 102.17 55.9961 98.361 53.1921 92.709C49.6161 85.4996 47.3428 76.1183 47.4001 68.8103C47.4454 63.2836 47.7148 59.6063 48.9121 56.4303C46.5734 58.6796 44.9148 61.549 44.2374 64.5983C41.0908 78.753 49.1681 96.6943 57.9534 102.112C58.1481 102.23 58.5121 102.449 58.6188 102.881C58.6654 103.07 58.6761 103.369 58.4641 103.717L58.2361 104.09L57.8068 104.006C50.7188 102.616 44.0188 93.601 40.6121 80.9463ZM61.1121 107.432C60.2748 107.432 59.4654 107.366 58.7041 107.284C49.7974 106.31 43.2014 101.586 39.1028 93.2423C36.8841 88.7263 36.9441 84.5023 39.2814 80.6876C39.5761 80.2076 39.9561 79.5863 40.8734 79.381L41.4668 79.2476L41.6174 79.837C44.4214 90.8263 49.6814 99.0783 55.4654 101.894C45.5001 94.041 40.5041 75.613 43.0134 64.3263C43.9494 60.1103 46.6188 56.2196 50.3374 53.6516L52.6081 52.1116L51.2334 54.4863C49.1094 58.0823 48.7081 61.973 48.6548 68.8196C48.5988 75.8383 50.8748 85.2143 54.3161 92.1516C57.0068 97.5783 60.7308 101.078 65.6988 102.852C65.7734 102.878 65.9308 102.894 66.0694 102.909C66.5494 102.958 67.8228 103.09 67.6921 104.566C67.5908 105.717 66.5201 106.194 65.8121 106.512C64.2321 107.218 62.6268 107.432 61.1121 107.432Z" fill="#D8AA1A"/>
<path fill-rule="evenodd" clip-rule="evenodd" d="M85.8591 45.7366C88.5591 45.6339 88.5298 48.1886 88.0098 62.5553V64.5379C81.1431 64.5326 69.3138 64.4966 62.8951 64.4753V64.4593C62.8951 52.2659 64.9484 46.8073 65.9111 43.4433C62.7471 43.9179 57.9884 45.3859 55.3738 50.8726C52.1098 57.7179 51.3978 68.0473 52.6538 76.3193C53.8284 84.0699 57.8911 97.9526 67.4738 101.137C68.1284 101.355 68.7098 100.659 68.3604 100.067C66.5938 97.0739 63.2431 89.3366 62.8311 73.3593C68.2618 73.4593 82.9018 73.6886 88.0124 73.6513V95.6059C88.0124 97.9259 89.8924 99.8059 92.2151 99.8059H97.0898C99.4098 99.8059 101.291 97.9259 101.291 95.6059V53.5059C101.798 41.7526 89.8924 38.7766 85.8644 45.7366H85.8591Z" fill="#D8AA1A"/>
<path d="M65.0231 44.2377C60.7565 45.1203 57.7045 47.4403 55.9391 51.1417C52.9565 57.3977 51.9098 67.243 53.2725 76.2257C53.7938 79.6603 56.9365 96.975 67.6711 100.542C67.7311 100.562 67.7765 100.55 67.8125 100.504C65.8991 97.1323 62.6151 89.2977 62.2045 73.375L62.1871 72.7203L62.8418 72.7323C68.6458 72.839 83.0551 73.0577 88.0085 73.0257L88.6405 73.0203V95.6057C88.6405 97.5763 90.2431 99.179 92.2138 99.179H97.0885C99.0605 99.179 100.664 97.5763 100.664 95.6057V53.5057C100.938 47.147 97.4498 43.855 94.3805 42.959C91.4938 42.1163 88.6725 43.011 86.9471 45.2457C87.2205 45.339 87.4965 45.4923 87.7431 45.7403C89.1311 47.1243 89.0671 50.631 88.6365 62.5777V65.1657L88.0098 65.1643C81.1418 65.1603 69.3125 65.123 62.8925 65.1017L62.2685 65.1003V64.475C62.2685 53.4177 63.9685 47.7483 64.9858 44.3617C64.9978 44.3203 65.0111 44.279 65.0231 44.2377ZM67.7205 101.806C67.5725 101.806 67.4218 101.782 67.2751 101.731C55.8471 97.935 52.5738 79.975 52.0338 76.4137C50.6351 67.2003 51.7245 57.0697 54.8071 50.6017C56.8951 46.223 60.5991 43.6057 65.8178 42.823L66.7818 42.6777L66.5138 43.615C66.4151 43.9603 66.3058 44.3283 66.1858 44.7217C65.2098 47.9803 63.5845 53.3923 63.5231 63.8497C69.8591 63.871 80.6698 63.9043 87.3831 63.911V62.555C87.7405 52.6483 87.9191 47.687 86.8578 46.627C86.7365 46.5057 86.5525 46.383 86.1311 46.363C86.1311 46.363 85.9298 46.371 85.8645 46.363C84.9538 46.2537 85.3218 45.423 85.3218 45.423C87.2205 42.1403 90.9978 40.667 94.7325 41.755C98.2365 42.7777 102.222 46.4763 101.919 53.5323V95.6057C101.919 98.267 99.7525 100.434 97.0885 100.434H92.2138C89.5525 100.434 87.3858 98.267 87.3858 95.6057V74.2817C82.1285 74.3017 69.3965 74.1043 63.4765 73.9977C63.9498 89.1963 67.0671 96.6443 68.9005 99.7483C69.1911 100.242 69.1471 100.848 68.7871 101.292C68.5191 101.624 68.1285 101.806 67.7205 101.806Z" fill="#D8AA1A"/>
<mask id="mask3_270_392" style="mask-type:luminance" maskUnits="userSpaceOnUse" x="27" y="27" width="77" height="52">
<path d="M27.7344 27.5691H103.101V78.4131H27.7344V27.5691Z" fill="white"/>
</mask>
<g mask="url(#mask3_270_392)">
<g opacity="0.5">
<path d="M27.8491 78.4131C27.8491 78.4131 26.2771 63.1678 34.7731 49.8024C43.5344 36.0198 57.0371 31.1144 60.1184 30.0744C71.5651 26.2118 81.1784 27.7784 85.3331 28.5064C94.3731 30.0931 103.101 36.3451 103.101 36.3451C103.101 36.3451 97.9637 34.2771 87.5531 34.3864C75.0117 34.5171 60.5104 34.7771 43.6571 51.8918C31.0037 64.7424 27.8491 78.4131 27.8491 78.4131Z" fill="#916818"/>
</g>
</g>
</g>
<defs>
<clipPath id="clip0_270_392">
<rect width="151.18" height="151.18" fill="white"/>
</clipPath>
</defs>
</svg>
