<svg width="9142" height="1184" viewBox="0 0 9142 1184" fill="none" xmlns="http://www.w3.org/2000/svg">
<g clip-path="url(#clip0_277_209)">
<path d="M364.399 1143.22V206.418H0V40.6398H930.544V206.418H566.147V1143.22H364.399Z" fill="white"/>
<path d="M1072.84 1143.22V40.6398H1815.72V198.6H1266.77V503.568H1779.75V663.09H1266.77V983.697H1815.72V1143.22H1072.84Z" fill="white"/>
<path d="M2205.12 539.538H2469.42C2536.13 539.538 2586.18 524.68 2619.56 494.966C2652.92 465.252 2669.61 423.294 2669.61 369.069C2669.61 314.869 2652.92 272.886 2619.56 243.172C2586.18 213.456 2536.13 198.6 2469.42 198.6H2205.12V539.538ZM2003.37 1143.22V40.6411H2492.88C2613.82 40.6411 2706.09 69.8423 2769.7 128.221C2833.28 186.625 2865.1 266.9 2865.1 369.069C2865.1 470.212 2833.28 550.486 2769.7 609.916C2706.09 669.345 2613.82 699.061 2492.88 699.061H2205.12V1143.22H2003.37Z" fill="white"/>
<path d="M3044.93 1143.22V40.6398H3246.68V972.749H3765.91V1143.22H3044.93Z" fill="white"/>
<path d="M4036.47 591.148C4036.47 715.237 4063.06 812.202 4116.23 882.041C4169.41 951.905 4248.63 986.825 4353.95 986.825C4456.12 986.825 4534.83 951.905 4590.11 882.041C4645.36 812.202 4673 715.237 4673 591.148C4673 466.033 4645.63 369.068 4590.89 300.254C4536.15 231.441 4457.17 197.034 4353.95 197.034C4248.63 197.034 4169.41 231.441 4116.23 300.254C4063.06 369.068 4036.47 466.033 4036.47 591.148ZM3825.34 591.148C3825.34 475.416 3846.45 375.324 3888.68 290.87C3930.91 206.418 3991.63 141.001 4070.88 94.5972C4150.1 48.2158 4244.48 25.0012 4353.95 25.0012C4462.38 25.0012 4556.21 48.2158 4635.46 94.5972C4714.69 141.001 4775.95 206.418 4819.22 290.87C4862.48 375.324 4884.13 474.902 4884.13 589.585C4884.13 705.316 4862.48 805.677 4819.22 890.642C4775.95 975.633 4714.69 1041.56 4635.46 1088.48C4556.21 1135.4 4462.38 1158.86 4353.95 1158.86C4244.48 1158.86 4150.37 1135.4 4071.66 1088.48C3992.93 1041.56 3932.2 975.633 3889.46 890.642C3846.7 805.677 3825.34 705.853 3825.34 591.148Z" fill="white"/>
<path d="M5520.61 1143.22V40.6398H6247.85V198.6H5722.36V511.388H6211.88V669.345H5722.36V1143.22H5520.61Z" fill="white"/>
<path d="M6415.17 1143.22V40.6398H7158.05V198.6H6609.1V503.568H7122.07V663.09H6609.1V983.697H7158.05V1143.22H6415.17Z" fill="white"/>
<path d="M7714.79 1158.86C7626.16 1158.86 7544.57 1147.64 7470.04 1125.23C7395.48 1102.83 7331.63 1071.81 7278.45 1032.18L7341.01 874.221C7376.44 899.244 7413.47 920.357 7452.05 937.561C7490.61 954.764 7531.81 967.813 7575.6 976.66C7619.39 985.529 7665.77 989.952 7714.79 989.952C7797.15 989.952 7856.58 976.414 7893.08 949.29C7929.57 922.19 7947.82 886.733 7947.82 842.942C7947.82 804.381 7935.31 774.91 7910.29 754.58C7885.26 734.248 7840.42 717.313 7775.79 703.75L7599.06 667.781C7497.92 646.937 7422.34 612.017 7372.29 562.997C7322.24 514.001 7297.22 448.316 7297.22 365.941C7297.22 297.126 7315.45 237.184 7351.96 186.086C7388.44 135.014 7439.54 95.3783 7505.22 67.2277C7570.91 39.077 7647.54 24.9997 7735.12 24.9997C7813.32 24.9997 7885.77 36.2184 7952.51 58.625C8019.23 81.0584 8075.01 113.118 8119.85 154.808L8057.3 304.946C8012.46 267.412 7963.46 239.529 7910.29 221.276C7857.11 203.045 7797.68 193.906 7732 193.906C7657.95 193.906 7600.36 208.25 7559.18 236.914C7517.98 265.604 7497.41 304.946 7497.41 354.993C7497.41 393.578 7510.16 424.342 7535.72 447.265C7561.26 470.21 7604.78 487.928 7666.31 500.44L7841.47 534.846C7945.72 555.714 8022.89 589.853 8072.94 637.284C8122.98 684.74 8148.01 748.593 8148.01 828.866C8148.01 894.553 8130.27 952.173 8094.83 1001.68C8059.37 1051.22 8009.33 1089.8 7944.69 1117.41C7880.03 1145.03 7803.4 1158.86 7714.79 1158.86Z" fill="white"/>
<path d="M8574.95 1143.22V206.418H8210.55V40.6398H9141.09V206.418H8776.69V1143.22H8574.95Z" fill="white"/>
</g>
<defs>
<clipPath id="clip0_277_209">
<rect width="9141.09" height="1183.36" fill="white"/>
</clipPath>
</defs>
</svg>
