<svg width="24" height="24" viewBox="0 0 24 24" fill="none" xmlns="http://www.w3.org/2000/svg">
<g clip-path="url(#clip0_14517_11826)">
<path d="M0 16H24V24H0V16Z" fill="#1EB53A"/>
<path d="M0 0H24V8H0V0Z" fill="#0099B5"/>
<path d="M0 7.67999H24V16.32H0V7.67999Z" fill="#CE1126"/>
<path d="M0 8.15997H24V15.84H0V8.15997Z" fill="white"/>
<path d="M5.04 6.71999C6.23294 6.71999 7.2 5.43057 7.2 3.83999C7.2 2.24941 6.23294 0.959991 5.04 0.959991C3.84707 0.959991 2.88 2.24941 2.88 3.83999C2.88 5.43057 3.84707 6.71999 5.04 6.71999Z" fill="white"/>
<path d="M5.76059 6.71999C6.95352 6.71999 7.92059 5.43057 7.92059 3.83999C7.92059 2.24941 6.95352 0.959991 5.76059 0.959991C4.56765 0.959991 3.60059 2.24941 3.60059 3.83999C3.60059 5.43057 4.56765 6.71999 5.76059 6.71999Z" fill="#0099B5"/>
<path d="M9.79152 5.56897L9.65472 6.11617L9.86352 6.21217" fill="white"/>
<path d="M9.79185 5.56897L9.92865 6.11617L9.71985 6.21217" fill="white"/>
<path d="M10.2065 5.94964L9.77158 5.98515L9.75389 6.25705" fill="white"/>
<path d="M10.2106 5.95784L9.84458 6.30558L9.72174 6.10092" fill="white"/>
<path d="M9.37282 5.95784L9.73886 6.30558L9.86169 6.10092" fill="white"/>
<path d="M9.37699 5.94964L9.81192 5.98515L9.8296 6.25705" fill="white"/>
<path d="M10.0387 6.60697L9.92279 6.05933L9.70329 6.15858" fill="white"/>
<path d="M10.0417 6.60336L9.69171 6.28528L9.82947 6.03414" fill="white"/>
<path d="M9.53422 6.61704L9.88759 6.26751L9.76965 6.03414" fill="white"/>
<path d="M9.53189 6.61416L9.67378 6.06243L9.87862 6.13767" fill="white"/>
<path d="M9.79152 3.26498L9.65472 3.81218L9.86352 3.90818" fill="white"/>
<path d="M9.79185 3.26498L9.92865 3.81218L9.71985 3.90818" fill="white"/>
<path d="M10.2065 3.64562L9.77158 3.68113L9.75389 3.95304" fill="white"/>
<path d="M10.2106 3.65385L9.84458 4.0016L9.72174 3.79693" fill="white"/>
<path d="M9.37282 3.65385L9.73886 4.0016L9.86169 3.79693" fill="white"/>
<path d="M9.37699 3.64562L9.81192 3.68113L9.8296 3.95304" fill="white"/>
<path d="M10.0387 4.30302L9.92279 3.75537L9.70329 3.85463" fill="white"/>
<path d="M10.0417 4.2994L9.69171 3.98132L9.82947 3.73019" fill="white"/>
<path d="M9.53422 4.31309L9.88759 3.96355L9.76965 3.73019" fill="white"/>
<path d="M9.53188 4.3102L9.67378 3.75847L9.87862 3.83372" fill="white"/>
<path d="M9.79152 0.960999L9.65472 1.5082L9.86352 1.6042" fill="white"/>
<path d="M9.79185 0.960999L9.92865 1.5082L9.71985 1.6042" fill="white"/>
<path d="M10.2065 1.34163L9.77158 1.37715L9.75389 1.64905" fill="white"/>
<path d="M10.2106 1.34986L9.84458 1.69761L9.72174 1.49295" fill="white"/>
<path d="M9.37282 1.34986L9.73886 1.69761L9.86169 1.49295" fill="white"/>
<path d="M9.37699 1.34163L9.81192 1.37715L9.8296 1.64905" fill="white"/>
<path d="M10.0387 1.99903L9.92279 1.45139L9.70329 1.55064" fill="white"/>
<path d="M10.0417 1.99545L9.69171 1.67737L9.82947 1.42623" fill="white"/>
<path d="M9.53422 2.00913L9.88759 1.6596L9.76965 1.42623" fill="white"/>
<path d="M9.53188 2.00625L9.67378 1.45452L9.87862 1.52976" fill="white"/>
<path d="M11.52 5.56897L11.3832 6.11617L11.592 6.21217" fill="white"/>
<path d="M11.5203 5.56897L11.6571 6.11617L11.4483 6.21217" fill="white"/>
<path d="M11.935 5.94964L11.5 5.98515L11.4823 6.25705" fill="white"/>
<path d="M11.9391 5.95784L11.573 6.30558L11.4502 6.10092" fill="white"/>
<path d="M11.1013 5.95784L11.4673 6.30558L11.5901 6.10092" fill="white"/>
<path d="M11.1054 5.94964L11.5404 5.98515L11.5581 6.25705" fill="white"/>
<path d="M11.7672 6.60697L11.6512 6.05933L11.4317 6.15858" fill="white"/>
<path d="M11.7702 6.60336L11.4202 6.28528L11.5579 6.03414" fill="white"/>
<path d="M11.2627 6.61704L11.616 6.26751L11.4981 6.03414" fill="white"/>
<path d="M11.2603 6.61416L11.4022 6.06243L11.6071 6.13767" fill="white"/>
<path d="M11.52 3.26498L11.3832 3.81218L11.592 3.90818" fill="white"/>
<path d="M11.5203 3.26498L11.6571 3.81218L11.4483 3.90818" fill="white"/>
<path d="M11.935 3.64562L11.5 3.68113L11.4823 3.95304" fill="white"/>
<path d="M11.9391 3.65385L11.573 4.0016L11.4502 3.79693" fill="white"/>
<path d="M11.1013 3.65385L11.4673 4.0016L11.5901 3.79693" fill="white"/>
<path d="M11.1054 3.64562L11.5404 3.68113L11.5581 3.95304" fill="white"/>
<path d="M11.7672 4.30302L11.6512 3.75537L11.4317 3.85463" fill="white"/>
<path d="M11.7702 4.2994L11.4202 3.98132L11.5579 3.73019" fill="white"/>
<path d="M11.2627 4.31309L11.616 3.96355L11.4981 3.73019" fill="white"/>
<path d="M11.2603 4.3102L11.4022 3.75847L11.6071 3.83372" fill="white"/>
<path d="M11.52 0.960999L11.3832 1.5082L11.592 1.6042" fill="white"/>
<path d="M11.5203 0.960999L11.6571 1.5082L11.4483 1.6042" fill="white"/>
<path d="M11.935 1.34163L11.5 1.37715L11.4823 1.64905" fill="white"/>
<path d="M11.9391 1.34986L11.573 1.69761L11.4502 1.49295" fill="white"/>
<path d="M11.1013 1.34986L11.4673 1.69761L11.5901 1.49295" fill="white"/>
<path d="M11.1054 1.34163L11.5404 1.37715L11.5581 1.64905" fill="white"/>
<path d="M11.7672 1.99903L11.6512 1.45139L11.4317 1.55064" fill="white"/>
<path d="M11.7702 1.99545L11.4202 1.67737L11.5579 1.42623" fill="white"/>
<path d="M11.2627 2.00913L11.616 1.6596L11.4981 1.42623" fill="white"/>
<path d="M11.2603 2.00625L11.4022 1.45452L11.6071 1.52976" fill="white"/>
<path d="M13.2486 5.56897L13.1118 6.11617L13.3206 6.21217" fill="white"/>
<path d="M13.2489 5.56897L13.3857 6.11617L13.1769 6.21217" fill="white"/>
<path d="M13.6635 5.94964L13.2286 5.98515L13.2109 6.25705" fill="white"/>
<path d="M13.6676 5.95784L13.3016 6.30558L13.1788 6.10092" fill="white"/>
<path d="M12.8299 5.95784L13.1959 6.30558L13.3187 6.10092" fill="white"/>
<path d="M12.834 5.94964L13.2689 5.98515L13.2866 6.25705" fill="white"/>
<path d="M13.4958 6.60697L13.3798 6.05933L13.1603 6.15858" fill="white"/>
<path d="M13.4987 6.60336L13.1487 6.28528L13.2865 6.03414" fill="white"/>
<path d="M12.9912 6.61704L13.3446 6.26751L13.2267 6.03414" fill="white"/>
<path d="M12.9889 6.61416L13.1308 6.06243L13.3356 6.13767" fill="white"/>
<path d="M13.2486 3.26498L13.1118 3.81218L13.3206 3.90818" fill="white"/>
<path d="M13.2489 3.26498L13.3857 3.81218L13.1769 3.90818" fill="white"/>
<path d="M13.6635 3.64562L13.2286 3.68113L13.2109 3.95304" fill="white"/>
<path d="M13.6676 3.65385L13.3016 4.0016L13.1788 3.79693" fill="white"/>
<path d="M12.8299 3.65385L13.1959 4.0016L13.3187 3.79693" fill="white"/>
<path d="M12.834 3.64562L13.2689 3.68113L13.2866 3.95304" fill="white"/>
<path d="M13.4958 4.30302L13.3798 3.75537L13.1603 3.85463" fill="white"/>
<path d="M13.4987 4.2994L13.1487 3.98132L13.2865 3.73019" fill="white"/>
<path d="M12.9912 4.31309L13.3446 3.96355L13.2267 3.73019" fill="white"/>
<path d="M12.9889 4.3102L13.1308 3.75847L13.3356 3.83372" fill="white"/>
<path d="M13.2486 0.960999L13.1118 1.5082L13.3206 1.6042" fill="white"/>
<path d="M13.2489 0.960999L13.3857 1.5082L13.1769 1.6042" fill="white"/>
<path d="M13.6635 1.34163L13.2286 1.37715L13.2109 1.64905" fill="white"/>
<path d="M13.6676 1.34986L13.3016 1.69761L13.1788 1.49295" fill="white"/>
<path d="M12.8299 1.34986L13.1959 1.69761L13.3187 1.49295" fill="white"/>
<path d="M12.834 1.34163L13.2689 1.37715L13.2866 1.64905" fill="white"/>
<path d="M13.4958 1.99903L13.3798 1.45139L13.1603 1.55064" fill="white"/>
<path d="M13.4987 1.99545L13.1487 1.67737L13.2865 1.42623" fill="white"/>
<path d="M12.9912 2.00913L13.3446 1.6596L13.2267 1.42623" fill="white"/>
<path d="M12.9889 2.00625L13.1308 1.45452L13.3356 1.52976" fill="white"/>
<path d="M6.33596 5.56897L6.19916 6.11617L6.40796 6.21217" fill="white"/>
<path d="M6.33628 5.56897L6.47308 6.11617L6.26428 6.21217" fill="white"/>
<path d="M6.75094 5.94964L6.31601 5.98515L6.29833 6.25705" fill="white"/>
<path d="M6.75505 5.95784L6.38901 6.30558L6.26618 6.10092" fill="white"/>
<path d="M5.91726 5.95784L6.28329 6.30558L6.40613 6.10092" fill="white"/>
<path d="M5.92143 5.94964L6.35635 5.98515L6.37404 6.25705" fill="white"/>
<path d="M6.58316 6.60697L6.46723 6.05933L6.24772 6.15858" fill="white"/>
<path d="M6.58615 6.60336L6.23615 6.28528L6.37391 6.03414" fill="white"/>
<path d="M6.07865 6.61704L6.43202 6.26751L6.31408 6.03414" fill="white"/>
<path d="M6.07632 6.61416L6.21822 6.06243L6.42305 6.13767" fill="white"/>
<path d="M8.06447 5.56897L7.92767 6.11617L8.13647 6.21217" fill="white"/>
<path d="M8.0648 5.56897L8.2016 6.11617L7.9928 6.21217" fill="white"/>
<path d="M8.47945 5.94964L8.04453 5.98515L8.02684 6.25705" fill="white"/>
<path d="M8.48356 5.95784L8.11753 6.30558L7.99469 6.10092" fill="white"/>
<path d="M7.64577 5.95784L8.01181 6.30558L8.13464 6.10092" fill="white"/>
<path d="M7.64994 5.94964L8.08487 5.98515L8.10255 6.25705" fill="white"/>
<path d="M8.31168 6.60697L8.19574 6.05933L7.97624 6.15858" fill="white"/>
<path d="M8.31467 6.60336L7.96466 6.28528L8.10242 6.03414" fill="white"/>
<path d="M7.80717 6.61704L8.16054 6.26751L8.0426 6.03414" fill="white"/>
<path d="M7.80483 6.61416L7.94673 6.06243L8.15157 6.13767" fill="white"/>
<path d="M8.06447 3.26501L7.92767 3.81221L8.13647 3.90821" fill="white"/>
<path d="M8.0648 3.26501L8.2016 3.81221L7.9928 3.90821" fill="white"/>
<path d="M8.47945 3.64565L8.04453 3.68116L8.02684 3.95307" fill="white"/>
<path d="M8.48356 3.65388L8.11753 4.00163L7.99469 3.79696" fill="white"/>
<path d="M7.64577 3.65388L8.01181 4.00163L8.13464 3.79696" fill="white"/>
<path d="M7.64994 3.64565L8.08487 3.68116L8.10255 3.95307" fill="white"/>
<path d="M8.31168 4.30302L8.19574 3.75537L7.97624 3.85463" fill="white"/>
<path d="M8.31467 4.2994L7.96466 3.98132L8.10242 3.73019" fill="white"/>
<path d="M7.80717 4.31309L8.16054 3.96355L8.0426 3.73019" fill="white"/>
<path d="M7.80483 4.3102L7.94673 3.75847L8.15157 3.83372" fill="white"/>
</g>
<defs>
<clipPath id="clip0_14517_11826">
<path d="M0 4C0 1.79086 1.79086 0 4 0H20C22.2091 0 24 1.79086 24 4V20C24 22.2091 22.2091 24 20 24H4C1.79086 24 0 22.2091 0 20V4Z" fill="white"/>
</clipPath>
</defs>
</svg>
